<svg width="360" height="55" viewBox="0 0 360 55" fill="none" xmlns="http://www.w3.org/2000/svg">
<g clip-path="url(#clip0_19_86)">
<path d="M99.616 0.727999C101.237 0.727999 102.731 1.13333 104.096 1.944C105.483 2.75467 106.581 3.85333 107.392 5.24C108.203 6.60533 108.608 8.09867 108.608 9.72V14.008C108.608 15.6293 108.203 17.1333 107.392 18.52C106.581 19.8853 105.483 20.9733 104.096 21.784C102.731 22.5947 101.237 23 99.616 23H91.392V0.727999H99.616ZM107.424 9.72C107.424 8.312 107.072 7.01067 106.368 5.816C105.664 4.62133 104.704 3.672 103.488 2.968C102.293 2.264 100.992 1.912 99.584 1.912H92.576V21.816H99.584C100.992 21.816 102.293 21.464 103.488 20.76C104.704 20.056 105.664 19.1067 106.368 17.912C107.072 16.7173 107.424 15.416 107.424 14.008V9.72ZM134.024 23H113.032L123.528 0.247999L134.024 23ZM114.888 21.816H132.168L123.528 3.064L114.888 21.816ZM156.207 0.727999V1.912H147.791V23H146.639V1.912H138.223V0.727999H156.207ZM181.399 23H160.407L170.903 0.247999L181.399 23ZM162.263 21.816H179.543L170.903 3.064L162.263 21.816Z" fill="#FF9C41"/>
<path d="M191.296 1.728L199.808 22.432L208.32 1.728H209.568L200.416 24H199.168L190.016 1.728H191.296ZM215.848 1.728H231.528V2.912H217.032V11.936H229.64V13.12H217.032V22.816H231.528V24H215.848V1.728ZM247.695 13.344C245.882 12.9813 244.399 12.5867 243.247 12.16C242.116 11.712 241.22 11.1147 240.559 10.368C239.919 9.6 239.599 8.61867 239.599 7.424C239.599 6.18667 239.919 5.09867 240.559 4.16C241.22 3.22133 242.138 2.496 243.311 1.984C244.506 1.472 245.882 1.216 247.439 1.216C248.932 1.216 250.298 1.536 251.535 2.176C252.794 2.79467 253.786 3.66933 254.511 4.8C255.236 5.93067 255.599 7.22133 255.599 8.672H254.415C254.415 7.41333 254.106 6.304 253.487 5.344C252.868 4.384 252.026 3.648 250.959 3.136C249.892 2.60267 248.708 2.336 247.407 2.336C246.255 2.336 245.178 2.51733 244.175 2.88C243.172 3.24267 242.351 3.79733 241.711 4.544C241.092 5.29067 240.783 6.22933 240.783 7.36C240.783 8.384 241.082 9.20533 241.679 9.824C242.276 10.4213 243.055 10.88 244.015 11.2C244.975 11.52 246.319 11.8613 248.047 12.224C249.796 12.5867 251.151 12.9387 252.111 13.28C253.092 13.6 253.914 14.144 254.575 14.912C255.258 15.68 255.599 16.7573 255.599 18.144C255.599 19.5307 255.226 20.704 254.479 21.664C253.754 22.6027 252.783 23.3067 251.567 23.776C250.351 24.2453 249.028 24.48 247.599 24.48C245.828 24.48 244.271 24.1493 242.927 23.488C241.583 22.8267 240.548 21.8987 239.823 20.704C239.119 19.488 238.767 18.1013 238.767 16.544H239.951C239.951 17.9093 240.25 19.104 240.847 20.128C241.466 21.152 242.351 21.952 243.503 22.528C244.655 23.0827 246.02 23.36 247.599 23.36C249.562 23.36 251.183 22.8907 252.463 21.952C253.764 21.0133 254.415 19.7333 254.415 18.112C254.415 17.0027 254.138 16.1493 253.583 15.552C253.028 14.9547 252.324 14.528 251.471 14.272C250.639 13.9947 249.38 13.6853 247.695 13.344ZM279.895 1.728V2.912H271.479V24H270.327V2.912H261.911V1.728H279.895Z" fill="#FF8E26"/>
<path d="M191.296 1.728L191.758 1.53788L191.631 1.228H191.296V1.728ZM199.808 22.432L199.346 22.6221L199.808 23.7469L200.27 22.6221L199.808 22.432ZM208.32 1.728V1.228H207.985L207.858 1.53788L208.32 1.728ZM209.568 1.728L210.03 1.91804L210.314 1.228H209.568V1.728ZM200.416 24V24.5H200.751L200.878 24.19L200.416 24ZM199.168 24L198.706 24.19L198.833 24.5H199.168V24ZM190.016 1.728V1.228H189.27L189.554 1.91804L190.016 1.728ZM190.834 1.91812L199.346 22.6221L200.27 22.2419L191.758 1.53788L190.834 1.91812ZM200.27 22.6221L208.782 1.91812L207.858 1.53788L199.346 22.2419L200.27 22.6221ZM208.32 2.228H209.568V1.228H208.32V2.228ZM209.106 1.53796L199.954 23.81L200.878 24.19L210.03 1.91804L209.106 1.53796ZM200.416 23.5H199.168V24.5H200.416V23.5ZM199.63 23.81L190.478 1.53796L189.554 1.91804L198.706 24.19L199.63 23.81ZM190.016 2.228H191.296V1.228H190.016V2.228ZM215.848 1.728V1.228H215.348V1.728H215.848ZM231.528 1.728H232.028V1.228H231.528V1.728ZM231.528 2.912V3.412H232.028V2.912H231.528ZM217.032 2.912V2.412H216.532V2.912H217.032ZM217.032 11.936H216.532V12.436H217.032V11.936ZM229.64 11.936H230.14V11.436H229.64V11.936ZM229.64 13.12V13.62H230.14V13.12H229.64ZM217.032 13.12V12.62H216.532V13.12H217.032ZM217.032 22.816H216.532V23.316H217.032V22.816ZM231.528 22.816H232.028V22.316H231.528V22.816ZM231.528 24V24.5H232.028V24H231.528ZM215.848 24H215.348V24.5H215.848V24ZM215.848 2.228H231.528V1.228H215.848V2.228ZM231.028 1.728V2.912H232.028V1.728H231.028ZM231.528 2.412H217.032V3.412H231.528V2.412ZM216.532 2.912V11.936H217.532V2.912H216.532ZM217.032 12.436H229.64V11.436H217.032V12.436ZM229.14 11.936V13.12H230.14V11.936H229.14ZM229.64 12.62H217.032V13.62H229.64V12.62ZM216.532 13.12V22.816H217.532V13.12H216.532ZM217.032 23.316H231.528V22.316H217.032V23.316ZM231.028 22.816V24H232.028V22.816H231.028ZM231.528 23.5H215.848V24.5H231.528V23.5ZM216.348 24V1.728H215.348V24H216.348ZM247.695 13.344L247.794 12.8539L247.793 12.8537L247.695 13.344ZM243.247 12.16L243.063 12.625L243.073 12.6289L243.247 12.16ZM240.559 10.368L240.175 10.6881L240.18 10.6939L240.185 10.6995L240.559 10.368ZM240.559 4.16L240.15 3.87199L240.146 3.87833L240.559 4.16ZM243.311 1.984L243.114 1.52442L243.111 1.52573L243.311 1.984ZM251.535 2.176L251.305 2.6202L251.314 2.62472L251.535 2.176ZM254.511 4.8L254.932 4.53002L254.932 4.53002L254.511 4.8ZM255.599 8.672V9.172H256.099V8.672H255.599ZM254.415 8.672H253.915V9.172H254.415V8.672ZM253.487 5.344L253.907 5.07315L253.907 5.07315L253.487 5.344ZM250.959 3.136L250.735 3.58327L250.743 3.58676L250.959 3.136ZM244.175 2.88L244.005 2.40981L244.005 2.40981L244.175 2.88ZM241.711 4.544L241.331 4.21856L241.326 4.22499L241.711 4.544ZM241.679 9.824L241.319 10.1714L241.325 10.1776L241.679 9.824ZM244.015 11.2L243.857 11.6743L243.857 11.6743L244.015 11.2ZM248.047 12.224L247.944 12.7133L247.946 12.7136L248.047 12.224ZM252.111 13.28L251.943 13.7513L251.956 13.7554L252.111 13.28ZM254.575 14.912L254.196 15.2383L254.201 15.2442L254.575 14.912ZM254.479 21.664L254.084 21.357L254.083 21.3583L254.479 21.664ZM251.567 23.776L251.747 24.2425L251.747 24.2425L251.567 23.776ZM242.927 23.488L242.706 23.9366L242.927 23.488ZM239.823 20.704L239.39 20.9546L239.396 20.9635L239.823 20.704ZM238.767 16.544V16.044H238.267V16.544H238.767ZM239.951 16.544H240.451V16.044H239.951V16.544ZM240.847 20.128L240.415 20.38L240.419 20.3866L240.847 20.128ZM243.503 22.528L243.279 22.9753L243.286 22.9785L243.503 22.528ZM252.463 21.952L252.17 21.5465L252.167 21.5488L252.463 21.952ZM253.583 15.552L253.217 15.8922L253.217 15.8922L253.583 15.552ZM251.471 14.272L251.313 14.7463L251.32 14.7487L251.327 14.7509L251.471 14.272ZM247.793 12.8537C245.994 12.4939 244.539 12.1054 243.421 11.6911L243.073 12.6289C244.259 13.068 245.769 13.4688 247.597 13.8343L247.793 12.8537ZM243.431 11.6952C242.358 11.2698 241.532 10.7129 240.933 10.0365L240.185 10.6995C240.908 11.5164 241.875 12.1542 243.063 12.6248L243.431 11.6952ZM240.943 10.0479C240.392 9.3865 240.099 8.5255 240.099 7.424H239.099C239.099 8.71183 239.446 9.8135 240.175 10.6881L240.943 10.0479ZM240.099 7.424C240.099 6.27778 240.394 5.28989 240.972 4.44167L240.146 3.87833C239.444 4.90745 239.099 6.09555 239.099 7.424H240.099ZM240.968 4.44798C241.57 3.59247 242.412 2.922 243.511 2.44227L243.111 1.52573C241.864 2.07 240.87 2.85019 240.15 3.87202L240.968 4.44798ZM243.508 2.44357C244.629 1.96298 245.936 1.716 247.439 1.716V0.716C245.827 0.716 244.382 0.981017 243.114 1.52443L243.508 2.44357ZM247.439 1.716C248.858 1.716 250.144 2.01945 251.305 2.62011L251.765 1.73189C250.451 1.05255 249.006 0.716 247.439 0.716V1.716ZM251.314 2.62472C252.495 3.20503 253.416 4.0195 254.09 5.06998L254.932 4.53002C254.155 3.31917 253.092 2.3843 251.756 1.72727L251.314 2.62472ZM254.09 5.06998C254.76 6.11362 255.099 7.30907 255.099 8.672H256.099C256.099 7.13359 255.713 5.74771 254.932 4.53002L254.09 5.06998ZM255.599 8.172H254.415V9.172H255.599V8.172ZM254.915 8.672C254.915 7.32744 254.583 6.12204 253.907 5.07315L253.067 5.61485C253.628 6.48595 253.915 7.49923 253.915 8.672H254.915ZM253.907 5.07315C253.237 4.03261 252.322 3.23571 251.175 2.68524L250.743 3.58676C251.729 4.06029 252.5 4.73539 253.067 5.61485L253.907 5.07315ZM251.183 2.68879C250.04 2.11765 248.779 1.836 247.407 1.836V2.836C248.638 2.836 249.744 3.08768 250.735 3.58321L251.183 2.68879ZM247.407 1.836C246.202 1.836 245.066 2.02589 244.005 2.40981L244.345 3.35019C245.289 3.00877 246.308 2.836 247.407 2.836V1.836ZM244.005 2.40981C242.928 2.7993 242.032 3.40093 241.331 4.2186L242.091 4.86939C242.67 4.19373 243.417 3.68604 244.345 3.35019L244.005 2.40981ZM241.326 4.22499C240.621 5.07585 240.283 6.13317 240.283 7.36H241.283C241.283 6.32549 241.564 5.50549 242.096 4.86301L241.326 4.22499ZM240.283 7.36C240.283 8.4872 240.615 9.44203 241.319 10.1713L242.039 9.4767C241.548 8.96864 241.283 8.2808 241.283 7.36H240.283ZM241.325 10.1776C241.987 10.8396 242.838 11.3346 243.857 11.6743L244.173 10.7257C243.272 10.4254 242.565 10.0031 242.033 9.47045L241.325 10.1776ZM243.857 11.6743C244.844 12.0032 246.209 12.3492 247.944 12.7133L248.15 11.7347C246.429 11.3735 245.106 11.0368 244.173 10.7257L243.857 11.6743ZM247.946 12.7136C249.686 13.0745 251.015 13.4211 251.943 13.7511L252.279 12.8089C251.287 12.4563 249.906 12.0988 248.149 11.7344L247.946 12.7136ZM251.956 13.7554C252.852 14.0476 253.596 14.5408 254.196 15.2383L254.954 14.5857C254.232 13.7472 253.333 13.1524 252.266 12.8046L251.956 13.7554ZM254.201 15.2442C254.778 15.8928 255.099 16.8365 255.099 18.144H256.099C256.099 16.6781 255.737 15.4672 254.949 14.5798L254.201 15.2442ZM255.099 18.144C255.099 19.4358 254.753 20.4969 254.084 21.357L254.874 21.971C255.698 20.9111 256.099 19.6255 256.099 18.144H255.099ZM254.083 21.3583C253.419 22.2177 252.526 22.8697 251.387 23.3095L251.747 24.2425C253.04 23.7436 254.088 22.9877 254.875 21.9697L254.083 21.3583ZM251.387 23.3095C250.234 23.7547 248.973 23.98 247.599 23.98V24.98C249.084 24.98 250.468 24.736 251.747 24.2425L251.387 23.3095ZM247.599 23.98C245.891 23.98 244.412 23.6613 243.148 23.0394L242.706 23.9366C244.13 24.6374 245.766 24.98 247.599 24.98V23.98ZM243.148 23.0394C241.883 22.417 240.923 21.5518 240.25 20.4445L239.396 20.9635C240.174 22.2455 241.283 23.2364 242.706 23.9366L243.148 23.0394ZM240.256 20.4535C239.6 19.3216 239.267 18.0231 239.267 16.544H238.267C238.267 18.1795 238.638 19.6544 239.39 20.9545L240.256 20.4535ZM238.767 17.044H239.951V16.044H238.767V17.044ZM239.451 16.544C239.451 17.9842 239.767 19.2685 240.415 20.3799L241.279 19.8761C240.733 18.9395 240.451 17.8344 240.451 16.544H239.451ZM240.419 20.3866C241.09 21.4977 242.05 22.3603 243.279 22.9752L243.727 22.0808C242.652 21.5437 241.841 20.8063 241.275 19.8694L240.419 20.3866ZM243.286 22.9785C244.52 23.5725 245.962 23.86 247.599 23.86V22.86C246.078 22.86 244.79 22.5929 243.72 22.0775L243.286 22.9785ZM247.599 23.86C249.642 23.86 251.374 23.3704 252.759 22.3552L252.167 21.5488C250.992 22.411 249.481 22.86 247.599 22.86V23.86ZM252.756 22.3575C254.189 21.3237 254.915 19.892 254.915 18.112H253.915C253.915 19.5747 253.34 20.703 252.17 21.5465L252.756 22.3575ZM254.915 18.112C254.915 16.9227 254.617 15.9306 253.949 15.2118L253.217 15.8922C253.658 16.368 253.915 17.0827 253.915 18.112H254.915ZM253.949 15.2118C253.329 14.5432 252.545 14.0722 251.615 13.7931L251.327 14.7509C252.104 14.9838 252.728 15.3661 253.217 15.8922L253.949 15.2118ZM251.629 13.7977C250.767 13.5104 249.484 13.1963 247.794 12.8539L247.596 13.8341C249.276 14.1744 250.511 14.4789 251.313 14.7463L251.629 13.7977ZM279.895 1.728H280.395V1.228H279.895V1.728ZM279.895 2.912V3.412H280.395V2.912H279.895ZM271.479 2.912V2.412H270.979V2.912H271.479ZM271.479 24V24.5H271.979V24H271.479ZM270.327 24H269.827V24.5H270.327V24ZM270.327 2.912H270.827V2.412H270.327V2.912ZM261.911 2.912H261.411V3.412H261.911V2.912ZM261.911 1.728V1.228H261.411V1.728H261.911ZM279.395 1.728V2.912H280.395V1.728H279.395ZM279.895 2.412H271.479V3.412H279.895V2.412ZM270.979 2.912V24H271.979V2.912H270.979ZM271.479 23.5H270.327V24.5H271.479V23.5ZM270.827 24V2.912H269.827V24H270.827ZM270.327 2.412H261.911V3.412H270.327V2.412ZM262.411 2.912V1.728H261.411V2.912H262.411ZM261.911 2.228H279.895V1.228H261.911V2.228Z" fill="#FF8E26"/>
</g>
<path d="M126.532 54.22C125.344 54.22 124.23 53.9927 123.188 53.538C122.162 53.0833 121.252 52.4527 120.46 51.646C119.683 50.8393 119.074 49.908 118.634 48.852C118.209 47.7813 117.996 46.63 117.996 45.398C117.996 44.1807 118.209 43.044 118.634 41.988C119.074 40.9173 119.683 39.986 120.46 39.194C121.238 38.3873 122.14 37.7567 123.166 37.302C124.208 36.8327 125.33 36.598 126.532 36.598C127.603 36.598 128.564 36.752 129.414 37.06C130.265 37.3533 131.094 37.8373 131.9 38.512C132.032 38.6147 132.113 38.732 132.142 38.864C132.186 38.9813 132.186 39.0987 132.142 39.216C132.113 39.3333 132.062 39.436 131.988 39.524C131.959 39.6853 131.871 39.8173 131.724 39.92C131.592 40.008 131.431 40.052 131.24 40.052C131.05 40.052 130.859 39.9787 130.668 39.832C130.111 39.3333 129.51 38.9667 128.864 38.732C128.219 38.4827 127.442 38.358 126.532 38.358C125.608 38.358 124.736 38.5487 123.914 38.93C123.108 39.2967 122.396 39.8027 121.78 40.448C121.164 41.0933 120.68 41.8413 120.328 42.692C119.991 43.5427 119.822 44.4447 119.822 45.398C119.822 46.3807 119.991 47.2973 120.328 48.148C120.68 48.9987 121.164 49.7467 121.78 50.392C122.396 51.0373 123.108 51.5433 123.914 51.91C124.736 52.2767 125.608 52.46 126.532 52.46C127.31 52.46 128.05 52.328 128.754 52.064C129.458 51.8 130.133 51.426 130.778 50.942C130.984 50.7807 131.189 50.7147 131.394 50.744C131.614 50.7733 131.798 50.8687 131.944 51.03C132.106 51.1767 132.186 51.382 132.186 51.646C132.186 51.778 132.164 51.8953 132.12 51.998C132.076 52.1007 132.01 52.2107 131.922 52.328C131.16 52.988 130.316 53.472 129.392 53.78C128.483 54.0733 127.53 54.22 126.532 54.22ZM134.925 54C134.558 54 134.287 53.8533 134.111 53.56C133.95 53.252 133.935 52.944 134.067 52.636L140.447 37.456C140.638 37.0307 140.946 36.818 141.371 36.818C141.796 36.818 142.09 37.0307 142.251 37.456L148.653 52.658C148.8 52.9807 148.778 53.2887 148.587 53.582C148.411 53.8607 148.154 54 147.817 54C147.626 54 147.45 53.9487 147.289 53.846C147.128 53.7433 147.003 53.604 146.915 53.428L141.063 39.084H141.723L135.783 53.428C135.71 53.6187 135.592 53.7653 135.431 53.868C135.27 53.956 135.101 54 134.925 54ZM136.289 49.996L137.015 48.39H145.837L146.585 49.996H136.289ZM152.198 54C151.919 54 151.692 53.912 151.516 53.736C151.34 53.56 151.252 53.3327 151.252 53.054V37.764C151.252 37.4853 151.34 37.258 151.516 37.082C151.692 36.906 151.919 36.818 152.198 36.818H156.158C157.419 36.818 158.57 37.0307 159.612 37.456C160.668 37.8667 161.577 38.4607 162.34 39.238C163.102 40.0007 163.689 40.9027 164.1 41.944C164.51 42.9853 164.716 44.1367 164.716 45.398C164.716 46.6593 164.51 47.818 164.1 48.874C163.689 49.9153 163.102 50.8247 162.34 51.602C161.577 52.3647 160.668 52.9587 159.612 53.384C158.57 53.7947 157.419 54 156.158 54H152.198ZM153.144 52.306H156.158C157.478 52.306 158.636 52.0127 159.634 51.426C160.646 50.8247 161.438 50.0033 162.01 48.962C162.582 47.9207 162.868 46.7327 162.868 45.398C162.868 44.0633 162.582 42.8753 162.01 41.834C161.438 40.7927 160.646 39.9787 159.634 39.392C158.636 38.8053 157.478 38.512 156.158 38.512H153.144V52.306ZM167.001 54C166.635 54 166.363 53.8533 166.187 53.56C166.026 53.252 166.011 52.944 166.143 52.636L172.523 37.456C172.714 37.0307 173.022 36.818 173.447 36.818C173.873 36.818 174.166 37.0307 174.327 37.456L180.729 52.658C180.876 52.9807 180.854 53.2887 180.663 53.582C180.487 53.8607 180.231 54 179.893 54C179.703 54 179.527 53.9487 179.365 53.846C179.204 53.7433 179.079 53.604 178.991 53.428L173.139 39.084H173.799L167.859 53.428C167.786 53.6187 167.669 53.7653 167.507 53.868C167.346 53.956 167.177 54 167.001 54ZM168.365 49.996L169.091 48.39H177.913L178.661 49.996H168.365ZM188.652 54.22C187.713 54.22 186.833 54.0807 186.012 53.802C185.205 53.5233 184.501 53.1347 183.9 52.636C183.299 52.1227 182.851 51.5287 182.558 50.854C182.426 50.6047 182.419 50.37 182.536 50.15C182.668 49.93 182.881 49.7833 183.174 49.71C183.394 49.6513 183.614 49.6807 183.834 49.798C184.054 49.9007 184.215 50.0693 184.318 50.304C184.538 50.7147 184.853 51.0887 185.264 51.426C185.689 51.7487 186.188 52.0053 186.76 52.196C187.347 52.372 187.977 52.46 188.652 52.46C189.415 52.46 190.097 52.3353 190.698 52.086C191.299 51.8367 191.776 51.4773 192.128 51.008C192.48 50.5387 192.656 49.9667 192.656 49.292C192.656 48.4413 192.333 47.7007 191.688 47.07C191.043 46.4247 190.016 46.0213 188.608 45.86C186.863 45.6547 185.491 45.1193 184.494 44.254C183.511 43.3887 183.02 42.318 183.02 41.042C183.02 40.1327 183.269 39.348 183.768 38.688C184.267 38.0133 184.949 37.5 185.814 37.148C186.679 36.7813 187.662 36.598 188.762 36.598C189.598 36.598 190.346 36.73 191.006 36.994C191.666 37.2433 192.238 37.5807 192.722 38.006C193.221 38.4313 193.631 38.908 193.954 39.436C194.13 39.7 194.189 39.9567 194.13 40.206C194.086 40.4407 193.954 40.624 193.734 40.756C193.499 40.8733 193.25 40.8953 192.986 40.822C192.737 40.734 192.546 40.5727 192.414 40.338C192.194 39.986 191.915 39.6633 191.578 39.37C191.255 39.062 190.859 38.82 190.39 38.644C189.921 38.468 189.363 38.3727 188.718 38.358C187.589 38.358 186.665 38.5927 185.946 39.062C185.227 39.5313 184.868 40.228 184.868 41.152C184.868 41.6213 184.993 42.0687 185.242 42.494C185.506 42.9047 185.939 43.2567 186.54 43.55C187.156 43.8433 187.992 44.0633 189.048 44.21C190.867 44.4447 192.231 44.9947 193.14 45.86C194.049 46.7253 194.504 47.862 194.504 49.27C194.504 50.0767 194.35 50.788 194.042 51.404C193.749 52.02 193.331 52.5407 192.788 52.966C192.245 53.3767 191.615 53.692 190.896 53.912C190.192 54.1173 189.444 54.22 188.652 54.22ZM202.201 54C201.937 54 201.71 53.912 201.519 53.736C201.343 53.5453 201.255 53.318 201.255 53.054V36.818H203.147V53.054C203.147 53.318 203.059 53.5453 202.883 53.736C202.707 53.912 202.48 54 202.201 54ZM196.195 38.556C195.931 38.556 195.719 38.4753 195.557 38.314C195.396 38.138 195.315 37.9327 195.315 37.698C195.315 37.434 195.396 37.2213 195.557 37.06C195.719 36.8987 195.931 36.818 196.195 36.818H208.229C208.493 36.818 208.706 36.8987 208.867 37.06C209.029 37.2213 209.109 37.434 209.109 37.698C209.109 37.9327 209.029 38.138 208.867 38.314C208.706 38.4753 208.493 38.556 208.229 38.556H196.195ZM212.59 54C212.312 54 212.084 53.912 211.908 53.736C211.732 53.56 211.644 53.3327 211.644 53.054V37.764C211.644 37.4853 211.732 37.258 211.908 37.082C212.084 36.906 212.312 36.818 212.59 36.818H216.66C217.731 36.818 218.684 37.0453 219.52 37.5C220.371 37.9547 221.031 38.5853 221.5 39.392C221.984 40.184 222.226 41.108 222.226 42.164C222.226 43.1613 221.984 44.0487 221.5 44.826C221.031 45.6033 220.371 46.212 219.52 46.652C218.684 47.092 217.731 47.312 216.66 47.312H213.536V53.054C213.536 53.3327 213.448 53.56 213.272 53.736C213.096 53.912 212.869 54 212.59 54ZM221.764 54C221.574 54 221.412 53.9633 221.28 53.89C221.148 53.802 221.038 53.6773 220.95 53.516L216.792 46.894L218.662 46.41L222.512 52.548C222.747 52.9147 222.784 53.252 222.622 53.56C222.476 53.8533 222.19 54 221.764 54ZM213.536 45.508H216.66C217.379 45.508 218.017 45.3687 218.574 45.09C219.146 44.7967 219.594 44.4007 219.916 43.902C220.239 43.3887 220.4 42.8093 220.4 42.164C220.4 41.46 220.239 40.844 219.916 40.316C219.594 39.7733 219.146 39.3553 218.574 39.062C218.017 38.754 217.379 38.6 216.66 38.6H213.536V45.508ZM233.272 54.22C231.996 54.22 230.823 54 229.752 53.56C228.681 53.12 227.75 52.5113 226.958 51.734C226.181 50.942 225.579 50.0107 225.154 48.94C224.729 47.8547 224.516 46.674 224.516 45.398C224.516 44.122 224.729 42.9487 225.154 41.878C225.579 40.8073 226.181 39.8833 226.958 39.106C227.75 38.314 228.681 37.698 229.752 37.258C230.823 36.818 231.996 36.598 233.272 36.598C234.548 36.598 235.714 36.818 236.77 37.258C237.841 37.698 238.772 38.314 239.564 39.106C240.356 39.8833 240.965 40.8073 241.39 41.878C241.815 42.9487 242.028 44.122 242.028 45.398C242.028 46.674 241.815 47.8547 241.39 48.94C240.965 50.0107 240.356 50.942 239.564 51.734C238.772 52.5113 237.841 53.12 236.77 53.56C235.714 54 234.548 54.22 233.272 54.22ZM233.272 52.46C234.269 52.46 235.186 52.284 236.022 51.932C236.873 51.5653 237.606 51.0667 238.222 50.436C238.853 49.7907 239.337 49.0427 239.674 48.192C240.011 47.3267 240.18 46.3953 240.18 45.398C240.18 44.4007 240.011 43.4767 239.674 42.626C239.337 41.7607 238.853 41.0127 238.222 40.382C237.606 39.7367 236.873 39.238 236.022 38.886C235.186 38.534 234.269 38.358 233.272 38.358C232.275 38.358 231.351 38.534 230.5 38.886C229.649 39.238 228.916 39.7367 228.3 40.382C227.684 41.0127 227.2 41.7607 226.848 42.626C226.511 43.4767 226.342 44.4007 226.342 45.398C226.342 46.3953 226.511 47.3267 226.848 48.192C227.2 49.0427 227.684 49.7907 228.3 50.436C228.916 51.0667 229.649 51.5653 230.5 51.932C231.351 52.284 232.275 52.46 233.272 52.46Z" fill="#FF9C41"/>
<defs>
<clipPath id="clip0_19_86">
<rect width="195" height="25" fill="white" transform="translate(88)"/>
</clipPath>
</defs>
</svg>
