<svg width="184" height="91" viewBox="0 0 184 91" fill="none" xmlns="http://www.w3.org/2000/svg">
<g clip-path="url(#clip0_16_85)">
<path d="M12 0H57C59.7614 0 62 2.23858 62 5V50H17C14.2386 50 12 47.7614 12 45V0Z" fill="url(#paint0_linear_16_85)"/>
<path d="M6 6H51C53.7614 6 56 8.23858 56 11V56H11C8.23858 56 6 53.7614 6 51V6Z" fill="url(#paint1_linear_16_85)"/>
<path d="M0 12H45C47.7614 12 50 14.2386 50 17V62H5C2.23858 62 0 59.7614 0 57V12Z" fill="#FF8E26"/>
<path d="M79.616 6.728C81.2373 6.728 82.7307 7.13333 84.096 7.944C85.4827 8.75467 86.5813 9.85333 87.392 11.24C88.2027 12.6053 88.608 14.0987 88.608 15.72V20.008C88.608 21.6293 88.2027 23.1333 87.392 24.52C86.5813 25.8853 85.4827 26.9733 84.096 27.784C82.7307 28.5947 81.2373 29 79.616 29H71.392V6.728H79.616ZM87.424 15.72C87.424 14.312 87.072 13.0107 86.368 11.816C85.664 10.6213 84.704 9.672 83.488 8.968C82.2933 8.264 80.992 7.912 79.584 7.912H72.576V27.816H79.584C80.992 27.816 82.2933 27.464 83.488 26.76C84.704 26.056 85.664 25.1067 86.368 23.912C87.072 22.7173 87.424 21.416 87.424 20.008V15.72ZM114.024 29H93.0315L103.528 6.248L114.024 29ZM94.8875 27.816H112.168L103.528 9.064L94.8875 27.816ZM136.207 6.728V7.912H127.791V29H126.639V7.912H118.223V6.728H136.207ZM161.399 29H140.407L150.903 6.248L161.399 29ZM142.263 27.816H159.543L150.903 9.064L142.263 27.816Z" fill="#FF9C41"/>
<path d="M95.296 32.728L103.808 53.432L112.32 32.728H113.568L104.416 55H103.168L94.016 32.728H95.296ZM119.848 32.728H135.528V33.912H121.032V42.936H133.64V44.12H121.032V53.816H135.528V55H119.848V32.728ZM151.695 44.344C149.882 43.9813 148.399 43.5867 147.247 43.16C146.116 42.712 145.22 42.1147 144.559 41.368C143.919 40.6 143.599 39.6187 143.599 38.424C143.599 37.1867 143.919 36.0987 144.559 35.16C145.22 34.2213 146.138 33.496 147.311 32.984C148.506 32.472 149.882 32.216 151.439 32.216C152.932 32.216 154.298 32.536 155.535 33.176C156.794 33.7947 157.786 34.6693 158.511 35.8C159.236 36.9307 159.599 38.2213 159.599 39.672H158.415C158.415 38.4133 158.106 37.304 157.487 36.344C156.868 35.384 156.026 34.648 154.959 34.136C153.892 33.6027 152.708 33.336 151.407 33.336C150.255 33.336 149.178 33.5173 148.175 33.88C147.172 34.2427 146.351 34.7973 145.711 35.544C145.092 36.2907 144.783 37.2293 144.783 38.36C144.783 39.384 145.082 40.2053 145.679 40.824C146.276 41.4213 147.055 41.88 148.015 42.2C148.975 42.52 150.319 42.8613 152.047 43.224C153.796 43.5867 155.151 43.9387 156.111 44.28C157.092 44.6 157.914 45.144 158.575 45.912C159.258 46.68 159.599 47.7573 159.599 49.144C159.599 50.5307 159.226 51.704 158.479 52.664C157.754 53.6027 156.783 54.3067 155.567 54.776C154.351 55.2453 153.028 55.48 151.599 55.48C149.828 55.48 148.271 55.1493 146.927 54.488C145.583 53.8267 144.548 52.8987 143.823 51.704C143.119 50.488 142.767 49.1013 142.767 47.544H143.951C143.951 48.9093 144.25 50.104 144.847 51.128C145.466 52.152 146.351 52.952 147.503 53.528C148.655 54.0827 150.02 54.36 151.599 54.36C153.562 54.36 155.183 53.8907 156.463 52.952C157.764 52.0133 158.415 50.7333 158.415 49.112C158.415 48.0027 158.138 47.1493 157.583 46.552C157.028 45.9547 156.324 45.528 155.471 45.272C154.639 44.9947 153.38 44.6853 151.695 44.344ZM183.895 32.728V33.912H175.479V55H174.327V33.912H165.911V32.728H183.895Z" fill="#FF8E26"/>
<path d="M95.296 32.728L95.7584 32.5379L95.631 32.228H95.296V32.728ZM103.808 53.432L103.346 53.6221L103.808 54.7469L104.27 53.6221L103.808 53.432ZM112.32 32.728V32.228H111.985L111.858 32.5379L112.32 32.728ZM113.568 32.728L114.03 32.918L114.314 32.228H113.568V32.728ZM104.416 55V55.5H104.751L104.878 55.19L104.416 55ZM103.168 55L102.706 55.19L102.833 55.5H103.168V55ZM94.016 32.728V32.228H93.27L93.5535 32.918L94.016 32.728ZM94.8336 32.9181L103.346 53.6221L104.27 53.2419L95.7584 32.5379L94.8336 32.9181ZM104.27 53.6221L112.782 32.9181L111.858 32.5379L103.346 53.2419L104.27 53.6221ZM112.32 33.228H113.568V32.228H112.32V33.228ZM113.106 32.538L103.954 54.81L104.878 55.19L114.03 32.918L113.106 32.538ZM104.416 54.5H103.168V55.5H104.416V54.5ZM103.63 54.81L94.4785 32.538L93.5535 32.918L102.706 55.19L103.63 54.81ZM94.016 33.228H95.296V32.228H94.016V33.228ZM119.848 32.728V32.228H119.348V32.728H119.848ZM135.528 32.728H136.028V32.228H135.528V32.728ZM135.528 33.912V34.412H136.028V33.912H135.528ZM121.032 33.912V33.412H120.532V33.912H121.032ZM121.032 42.936H120.532V43.436H121.032V42.936ZM133.64 42.936H134.14V42.436H133.64V42.936ZM133.64 44.12V44.62H134.14V44.12H133.64ZM121.032 44.12V43.62H120.532V44.12H121.032ZM121.032 53.816H120.532V54.316H121.032V53.816ZM135.528 53.816H136.028V53.316H135.528V53.816ZM135.528 55V55.5H136.028V55H135.528ZM119.848 55H119.348V55.5H119.848V55ZM119.848 33.228H135.528V32.228H119.848V33.228ZM135.028 32.728V33.912H136.028V32.728H135.028ZM135.528 33.412H121.032V34.412H135.528V33.412ZM120.532 33.912V42.936H121.532V33.912H120.532ZM121.032 43.436H133.64V42.436H121.032V43.436ZM133.14 42.936V44.12H134.14V42.936H133.14ZM133.64 43.62H121.032V44.62H133.64V43.62ZM120.532 44.12V53.816H121.532V44.12H120.532ZM121.032 54.316H135.528V53.316H121.032V54.316ZM135.028 53.816V55H136.028V53.816H135.028ZM135.528 54.5H119.848V55.5H135.528V54.5ZM120.348 55V32.728H119.348V55H120.348ZM151.695 44.344L151.794 43.8539L151.793 43.8537L151.695 44.344ZM147.247 43.16L147.063 43.625L147.073 43.6289L147.247 43.16ZM144.559 41.368L144.175 41.6881L144.18 41.6939L144.185 41.6995L144.559 41.368ZM144.559 35.16L144.15 34.872L144.146 34.8783L144.559 35.16ZM147.311 32.984L147.114 32.5244L147.111 32.5257L147.311 32.984ZM155.535 33.176L155.305 33.6202L155.314 33.6247L155.535 33.176ZM158.511 35.8L158.932 35.53L158.932 35.53L158.511 35.8ZM159.599 39.672V40.172H160.099V39.672H159.599ZM158.415 39.672H157.915V40.172H158.415V39.672ZM157.487 36.344L157.907 36.0731L157.907 36.0731L157.487 36.344ZM154.959 34.136L154.735 34.5833L154.743 34.5868L154.959 34.136ZM148.175 33.88L148.005 33.4098L148.005 33.4098L148.175 33.88ZM145.711 35.544L145.331 35.2186L145.326 35.225L145.711 35.544ZM145.679 40.824L145.319 41.1714L145.325 41.1776L145.679 40.824ZM148.015 42.2L147.857 42.6743L147.857 42.6743L148.015 42.2ZM152.047 43.224L151.944 43.7133L151.946 43.7136L152.047 43.224ZM156.111 44.28L155.943 44.7513L155.956 44.7554L156.111 44.28ZM158.575 45.912L158.196 46.2383L158.201 46.2442L158.575 45.912ZM158.479 52.664L158.084 52.357L158.083 52.3583L158.479 52.664ZM155.567 54.776L155.747 55.2425L155.747 55.2425L155.567 54.776ZM146.927 54.488L146.706 54.9366L146.927 54.488ZM143.823 51.704L143.39 51.9546L143.396 51.9635L143.823 51.704ZM142.767 47.544V47.044H142.267V47.544H142.767ZM143.951 47.544H144.451V47.044H143.951V47.544ZM144.847 51.128L144.415 51.38L144.419 51.3866L144.847 51.128ZM147.503 53.528L147.279 53.9753L147.286 53.9785L147.503 53.528ZM156.463 52.952L156.17 52.5465L156.167 52.5488L156.463 52.952ZM157.583 46.552L157.217 46.8922L157.217 46.8922L157.583 46.552ZM155.471 45.272L155.313 45.7463L155.32 45.7487L155.327 45.7509L155.471 45.272ZM151.793 43.8537C149.994 43.4939 148.539 43.1054 147.421 42.6911L147.073 43.6289C148.259 44.068 149.769 44.4688 151.597 44.8343L151.793 43.8537ZM147.431 42.6952C146.358 42.2698 145.532 41.7129 144.933 41.0365L144.185 41.6995C144.908 42.5164 145.875 43.1542 147.063 43.6248L147.431 42.6952ZM144.943 41.0479C144.392 40.3865 144.099 39.5255 144.099 38.424H143.099C143.099 39.7118 143.446 40.8135 144.175 41.6881L144.943 41.0479ZM144.099 38.424C144.099 37.2778 144.394 36.2899 144.972 35.4417L144.146 34.8783C143.444 35.9074 143.099 37.0956 143.099 38.424H144.099ZM144.968 35.448C145.57 34.5925 146.412 33.922 147.511 33.4423L147.111 32.5257C145.864 33.07 144.87 33.8502 144.15 34.872L144.968 35.448ZM147.508 33.4436C148.629 32.963 149.936 32.716 151.439 32.716V31.716C149.827 31.716 148.382 31.981 147.114 32.5244L147.508 33.4436ZM151.439 32.716C152.858 32.716 154.144 33.0195 155.305 33.6201L155.765 32.7319C154.451 32.0525 153.006 31.716 151.439 31.716V32.716ZM155.314 33.6247C156.495 34.205 157.416 35.0195 158.09 36.07L158.932 35.53C158.155 34.3192 157.092 33.3843 155.756 32.7273L155.314 33.6247ZM158.09 36.07C158.76 37.1136 159.099 38.3091 159.099 39.672H160.099C160.099 38.1336 159.713 36.7477 158.932 35.53L158.09 36.07ZM159.599 39.172H158.415V40.172H159.599V39.172ZM158.915 39.672C158.915 38.3274 158.583 37.122 157.907 36.0731L157.067 36.6149C157.628 37.486 157.915 38.4992 157.915 39.672H158.915ZM157.907 36.0731C157.237 35.0326 156.322 34.2357 155.175 33.6852L154.743 34.5868C155.729 35.0603 156.5 35.7354 157.067 36.6149L157.907 36.0731ZM155.183 33.6888C154.04 33.1177 152.779 32.836 151.407 32.836V33.836C152.638 33.836 153.744 34.0877 154.735 34.5832L155.183 33.6888ZM151.407 32.836C150.202 32.836 149.066 33.0259 148.005 33.4098L148.345 34.3502C149.289 34.0088 150.308 33.836 151.407 33.836V32.836ZM148.005 33.4098C146.928 33.7993 146.032 34.4009 145.331 35.2186L146.091 35.8694C146.67 35.1937 147.417 34.686 148.345 34.3502L148.005 33.4098ZM145.326 35.225C144.621 36.0758 144.283 37.1332 144.283 38.36H145.283C145.283 37.3255 145.564 36.5055 146.096 35.863L145.326 35.225ZM144.283 38.36C144.283 39.4872 144.615 40.442 145.319 41.1713L146.039 40.4767C145.548 39.9686 145.283 39.2808 145.283 38.36H144.283ZM145.325 41.1776C145.987 41.8396 146.838 42.3346 147.857 42.6743L148.173 41.7257C147.272 41.4254 146.565 41.0031 146.033 40.4704L145.325 41.1776ZM147.857 42.6743C148.844 43.0032 150.209 43.3492 151.944 43.7133L152.15 42.7347C150.429 42.3735 149.106 42.0368 148.173 41.7257L147.857 42.6743ZM151.946 43.7136C153.686 44.0745 155.015 44.4211 155.943 44.7511L156.279 43.8089C155.287 43.4563 153.906 43.0988 152.149 42.7344L151.946 43.7136ZM155.956 44.7554C156.852 45.0476 157.596 45.5408 158.196 46.2383L158.954 45.5857C158.232 44.7472 157.333 44.1524 156.266 43.8046L155.956 44.7554ZM158.201 46.2442C158.778 46.8928 159.099 47.8365 159.099 49.144H160.099C160.099 47.6781 159.737 46.4672 158.949 45.5798L158.201 46.2442ZM159.099 49.144C159.099 50.4358 158.753 51.4969 158.084 52.357L158.874 52.971C159.698 51.9111 160.099 50.6255 160.099 49.144H159.099ZM158.083 52.3583C157.419 53.2177 156.526 53.8697 155.387 54.3095L155.747 55.2425C157.04 54.7436 158.088 53.9877 158.875 52.9697L158.083 52.3583ZM155.387 54.3095C154.234 54.7547 152.973 54.98 151.599 54.98V55.98C153.084 55.98 154.468 55.736 155.747 55.2425L155.387 54.3095ZM151.599 54.98C149.891 54.98 148.412 54.6613 147.148 54.0394L146.706 54.9366C148.13 55.6374 149.766 55.98 151.599 55.98V54.98ZM147.148 54.0394C145.883 53.417 144.923 52.5518 144.25 51.4445L143.396 51.9635C144.174 53.2455 145.283 54.2364 146.706 54.9366L147.148 54.0394ZM144.256 51.4535C143.6 50.3216 143.267 49.0231 143.267 47.544H142.267C142.267 49.1795 142.638 50.6544 143.39 51.9545L144.256 51.4535ZM142.767 48.044H143.951V47.044H142.767V48.044ZM143.451 47.544C143.451 48.9842 143.767 50.2685 144.415 51.3799L145.279 50.8761C144.733 49.9395 144.451 48.8344 144.451 47.544H143.451ZM144.419 51.3866C145.09 52.4977 146.05 53.3603 147.279 53.9752L147.727 53.0808C146.652 52.5437 145.841 51.8063 145.275 50.8694L144.419 51.3866ZM147.286 53.9785C148.52 54.5725 149.962 54.86 151.599 54.86V53.86C150.078 53.86 148.79 53.5929 147.72 53.0775L147.286 53.9785ZM151.599 54.86C153.642 54.86 155.374 54.3704 156.759 53.3552L156.167 52.5488C154.992 53.411 153.481 53.86 151.599 53.86V54.86ZM156.756 53.3575C158.189 52.3237 158.915 50.892 158.915 49.112H157.915C157.915 50.5747 157.34 51.703 156.17 52.5465L156.756 53.3575ZM158.915 49.112C158.915 47.9227 158.617 46.9306 157.949 46.2118L157.217 46.8922C157.658 47.368 157.915 48.0827 157.915 49.112H158.915ZM157.949 46.2118C157.329 45.5432 156.545 45.0722 155.615 44.7931L155.327 45.7509C156.104 45.9838 156.728 46.3661 157.217 46.8922L157.949 46.2118ZM155.629 44.7977C154.767 44.5104 153.484 44.1963 151.794 43.8539L151.596 44.8341C153.276 45.1744 154.511 45.4789 155.313 45.7463L155.629 44.7977ZM183.895 32.728H184.395V32.228H183.895V32.728ZM183.895 33.912V34.412H184.395V33.912H183.895ZM175.479 33.912V33.412H174.979V33.912H175.479ZM175.479 55V55.5H175.979V55H175.479ZM174.327 55H173.827V55.5H174.327V55ZM174.327 33.912H174.827V33.412H174.327V33.912ZM165.911 33.912H165.411V34.412H165.911V33.912ZM165.911 32.728V32.228H165.411V32.728H165.911ZM183.395 32.728V33.912H184.395V32.728H183.395ZM183.895 33.412H175.479V34.412H183.895V33.412ZM174.979 33.912V55H175.979V33.912H174.979ZM175.479 54.5H174.327V55.5H175.479V54.5ZM174.827 55V33.912H173.827V55H174.827ZM174.327 33.412H165.911V34.412H174.327V33.412ZM166.411 33.912V32.728H165.411V33.912H166.411ZM165.911 33.228H183.895V32.228H165.911V33.228Z" fill="#FF8E26"/>
</g>
<path d="M14.2741 77C14.1541 77 14.0508 76.96 13.9641 76.88C13.8841 76.7933 13.8441 76.69 13.8441 76.57V69.19H14.7041V76.57C14.7041 76.69 14.6641 76.7933 14.5841 76.88C14.5041 76.96 14.4008 77 14.2741 77ZM11.5441 69.98C11.4241 69.98 11.3275 69.9433 11.2541 69.87C11.1808 69.79 11.1441 69.6967 11.1441 69.59C11.1441 69.47 11.1808 69.3733 11.2541 69.3C11.3275 69.2267 11.4241 69.19 11.5441 69.19H17.0141C17.1341 69.19 17.2308 69.2267 17.3041 69.3C17.3775 69.3733 17.4141 69.47 17.4141 69.59C17.4141 69.6967 17.3775 69.79 17.3041 69.87C17.2308 69.9433 17.1341 69.98 17.0141 69.98H11.5441ZM19.4525 77.05C18.9125 77.05 18.4325 76.93 18.0125 76.69C17.5992 76.45 17.2725 76.12 17.0325 75.7C16.7925 75.28 16.6725 74.8033 16.6725 74.27C16.6725 73.73 16.7925 73.25 17.0325 72.83C17.2725 72.41 17.5992 72.08 18.0125 71.84C18.4325 71.6 18.9125 71.48 19.4525 71.48C19.9858 71.48 20.4592 71.6 20.8725 71.84C21.2858 72.08 21.6125 72.41 21.8525 72.83C22.0925 73.25 22.2158 73.73 22.2225 74.27C22.2225 74.8033 22.1025 75.28 21.8625 75.7C21.6225 76.12 21.2925 76.45 20.8725 76.69C20.4592 76.93 19.9858 77.05 19.4525 77.05ZM19.4525 76.29C19.8258 76.29 20.1592 76.2033 20.4525 76.03C20.7458 75.85 20.9758 75.61 21.1425 75.31C21.3092 75.0033 21.3925 74.6567 21.3925 74.27C21.3925 73.8833 21.3092 73.5367 21.1425 73.23C20.9758 72.9233 20.7458 72.6833 20.4525 72.51C20.1592 72.33 19.8258 72.24 19.4525 72.24C19.0792 72.24 18.7425 72.33 18.4425 72.51C18.1492 72.6833 17.9158 72.9233 17.7425 73.23C17.5758 73.5367 17.4925 73.8833 17.4925 74.27C17.4925 74.6567 17.5758 75.0033 17.7425 75.31C17.9158 75.61 18.1492 75.85 18.4425 76.03C18.7425 76.2033 19.0792 76.29 19.4525 76.29ZM26.2103 77.05C25.6836 77.05 25.2103 76.93 24.7903 76.69C24.3703 76.4433 24.037 76.11 23.7903 75.69C23.5503 75.27 23.4303 74.7933 23.4303 74.26C23.4303 73.7333 23.547 73.26 23.7803 72.84C24.0136 72.42 24.3303 72.09 24.7303 71.85C25.1303 71.6033 25.5836 71.48 26.0903 71.48C26.5236 71.48 26.9136 71.5733 27.2603 71.76C27.6136 71.94 27.9003 72.18 28.1203 72.48V69.62C28.1203 69.4867 28.1603 69.3833 28.2403 69.31C28.327 69.23 28.4303 69.19 28.5503 69.19C28.677 69.19 28.7803 69.23 28.8603 69.31C28.9403 69.3833 28.9803 69.4867 28.9803 69.62V74.29C28.967 74.81 28.837 75.28 28.5903 75.7C28.3503 76.1133 28.0236 76.4433 27.6103 76.69C27.197 76.93 26.7303 77.05 26.2103 77.05ZM26.2103 76.29C26.5836 76.29 26.9136 76.2 27.2003 76.02C27.4936 75.84 27.7236 75.6 27.8903 75.3C28.0636 74.9933 28.1503 74.6467 28.1503 74.26C28.1503 73.88 28.0636 73.5367 27.8903 73.23C27.7236 72.9233 27.4936 72.6833 27.2003 72.51C26.9136 72.33 26.5836 72.24 26.2103 72.24C25.8436 72.24 25.5103 72.33 25.2103 72.51C24.917 72.6833 24.6836 72.9233 24.5103 73.23C24.337 73.5367 24.2503 73.88 24.2503 74.26C24.2503 74.6467 24.337 74.9933 24.5103 75.3C24.6836 75.6 24.917 75.84 25.2103 76.02C25.5103 76.2 25.8436 76.29 26.2103 76.29ZM33.1509 77.05C32.6442 77.05 32.1909 76.93 31.7909 76.69C31.3909 76.4433 31.0742 76.11 30.8409 75.69C30.6075 75.27 30.4909 74.7967 30.4909 74.27C30.4909 73.7367 30.6109 73.26 30.8509 72.84C31.0975 72.42 31.4309 72.09 31.8509 71.85C32.2709 71.6033 32.7442 71.48 33.2709 71.48C33.7909 71.48 34.2575 71.6033 34.6709 71.85C35.0909 72.09 35.4209 72.42 35.6609 72.84C35.9075 73.26 36.0342 73.7367 36.0409 74.27L35.7009 74.44C35.7009 74.9333 35.5875 75.3767 35.3609 75.77C35.1409 76.1633 34.8375 76.4767 34.4509 76.71C34.0709 76.9367 33.6375 77.05 33.1509 77.05ZM33.2709 76.29C33.6442 76.29 33.9742 76.2033 34.2609 76.03C34.5542 75.85 34.7842 75.6067 34.9509 75.3C35.1242 74.9933 35.2109 74.65 35.2109 74.27C35.2109 73.8833 35.1242 73.54 34.9509 73.24C34.7842 72.9333 34.5542 72.69 34.2609 72.51C33.9742 72.33 33.6442 72.24 33.2709 72.24C32.9042 72.24 32.5709 72.33 32.2709 72.51C31.9775 72.69 31.7442 72.9333 31.5709 73.24C31.3975 73.54 31.3109 73.8833 31.3109 74.27C31.3109 74.65 31.3975 74.9933 31.5709 75.3C31.7442 75.6067 31.9775 75.85 32.2709 76.03C32.5709 76.2033 32.9042 76.29 33.2709 76.29ZM35.6109 77C35.4909 77 35.3875 76.9633 35.3009 76.89C35.2209 76.81 35.1809 76.7067 35.1809 76.58V74.93L35.3709 74.06L36.0409 74.27V76.58C36.0409 76.7067 36.0009 76.81 35.9209 76.89C35.8409 76.9633 35.7375 77 35.6109 77ZM39.4687 77.05C39.0553 77.05 38.652 76.9833 38.2587 76.85C37.872 76.71 37.562 76.5133 37.3287 76.26C37.2487 76.1733 37.2153 76.0733 37.2287 75.96C37.242 75.8467 37.2953 75.7533 37.3887 75.68C37.4953 75.6 37.602 75.5667 37.7087 75.58C37.822 75.5933 37.9153 75.64 37.9887 75.72C38.1353 75.8933 38.3387 76.0333 38.5987 76.14C38.8587 76.24 39.1453 76.29 39.4587 76.29C39.9187 76.29 40.2553 76.2133 40.4687 76.06C40.6887 75.9 40.802 75.7033 40.8087 75.47C40.8087 75.2433 40.6987 75.0533 40.4787 74.9C40.2653 74.7467 39.8987 74.6267 39.3787 74.54C38.7053 74.4267 38.212 74.2367 37.8987 73.97C37.592 73.7033 37.4387 73.3833 37.4387 73.01C37.4387 72.67 37.532 72.3867 37.7187 72.16C37.9053 71.9333 38.1487 71.7633 38.4487 71.65C38.7553 71.5367 39.0853 71.48 39.4387 71.48C39.8853 71.48 40.272 71.5567 40.5987 71.71C40.9253 71.8567 41.1887 72.0567 41.3887 72.31C41.462 72.4033 41.492 72.5033 41.4787 72.61C41.472 72.71 41.4187 72.79 41.3187 72.85C41.232 72.91 41.1287 72.93 41.0087 72.91C40.8953 72.89 40.7987 72.8367 40.7187 72.75C40.552 72.57 40.362 72.44 40.1487 72.36C39.9353 72.2733 39.692 72.23 39.4187 72.23C39.072 72.23 38.792 72.3 38.5787 72.44C38.3653 72.5733 38.2587 72.7467 38.2587 72.96C38.2587 73.1067 38.2953 73.2333 38.3687 73.34C38.4487 73.4467 38.5853 73.5433 38.7787 73.63C38.9787 73.71 39.262 73.7833 39.6287 73.85C40.1287 73.9367 40.522 74.06 40.8087 74.22C41.102 74.3733 41.3087 74.5533 41.4287 74.76C41.5553 74.9667 41.6187 75.1967 41.6187 75.45C41.6187 75.7633 41.5287 76.04 41.3487 76.28C41.1753 76.5133 40.9287 76.7 40.6087 76.84C40.2887 76.98 39.9087 77.05 39.4687 77.05ZM47.7988 77.05C47.3854 77.05 46.9821 76.9833 46.5888 76.85C46.2021 76.71 45.8921 76.5133 45.6588 76.26C45.5788 76.1733 45.5454 76.0733 45.5588 75.96C45.5721 75.8467 45.6254 75.7533 45.7188 75.68C45.8254 75.6 45.9321 75.5667 46.0388 75.58C46.1521 75.5933 46.2454 75.64 46.3188 75.72C46.4654 75.8933 46.6688 76.0333 46.9288 76.14C47.1888 76.24 47.4754 76.29 47.7888 76.29C48.2488 76.29 48.5854 76.2133 48.7988 76.06C49.0188 75.9 49.1321 75.7033 49.1388 75.47C49.1388 75.2433 49.0288 75.0533 48.8088 74.9C48.5954 74.7467 48.2288 74.6267 47.7088 74.54C47.0354 74.4267 46.5421 74.2367 46.2288 73.97C45.9221 73.7033 45.7688 73.3833 45.7688 73.01C45.7688 72.67 45.8621 72.3867 46.0488 72.16C46.2354 71.9333 46.4788 71.7633 46.7788 71.65C47.0854 71.5367 47.4154 71.48 47.7688 71.48C48.2154 71.48 48.6021 71.5567 48.9288 71.71C49.2554 71.8567 49.5188 72.0567 49.7188 72.31C49.7921 72.4033 49.8221 72.5033 49.8088 72.61C49.8021 72.71 49.7488 72.79 49.6488 72.85C49.5621 72.91 49.4588 72.93 49.3388 72.91C49.2254 72.89 49.1288 72.8367 49.0488 72.75C48.8821 72.57 48.6921 72.44 48.4788 72.36C48.2654 72.2733 48.0221 72.23 47.7488 72.23C47.4021 72.23 47.1221 72.3 46.9088 72.44C46.6954 72.5733 46.5888 72.7467 46.5888 72.96C46.5888 73.1067 46.6254 73.2333 46.6988 73.34C46.7788 73.4467 46.9154 73.5433 47.1088 73.63C47.3088 73.71 47.5921 73.7833 47.9588 73.85C48.4588 73.9367 48.8521 74.06 49.1388 74.22C49.4321 74.3733 49.6388 74.5533 49.7588 74.76C49.8854 74.9667 49.9488 75.1967 49.9488 75.45C49.9488 75.7633 49.8588 76.04 49.6788 76.28C49.5054 76.5133 49.2588 76.7 48.9388 76.84C48.6188 76.98 48.2388 77.05 47.7988 77.05ZM53.6291 77.06C53.1558 77.06 52.7325 76.9633 52.3591 76.77C51.9925 76.57 51.7025 76.28 51.4891 75.9C51.2758 75.52 51.1691 75.0533 51.1691 74.5V71.95C51.1691 71.83 51.2091 71.73 51.2891 71.65C51.3691 71.57 51.4691 71.53 51.5891 71.53C51.7091 71.53 51.8091 71.57 51.8891 71.65C51.9691 71.73 52.0091 71.83 52.0091 71.95V74.5C52.0091 74.9067 52.0858 75.24 52.2391 75.5C52.3925 75.7533 52.5991 75.9467 52.8591 76.08C53.1191 76.2067 53.4125 76.27 53.7391 76.27C54.0525 76.27 54.3358 76.21 54.5891 76.09C54.8425 75.9633 55.0425 75.7967 55.1891 75.59C55.3358 75.3767 55.4091 75.1333 55.4091 74.86H55.9791C55.9658 75.28 55.8558 75.6567 55.6491 75.99C55.4425 76.3167 55.1625 76.5767 54.8091 76.77C54.4558 76.9633 54.0625 77.06 53.6291 77.06ZM55.8291 77C55.7025 77 55.5991 76.9633 55.5191 76.89C55.4458 76.81 55.4091 76.7033 55.4091 76.57V71.95C55.4091 71.8233 55.4458 71.7233 55.5191 71.65C55.5991 71.57 55.7025 71.53 55.8291 71.53C55.9558 71.53 56.0591 71.57 56.1391 71.65C56.2191 71.7233 56.2591 71.8233 56.2591 71.95V76.57C56.2591 76.7033 56.2191 76.81 56.1391 76.89C56.0591 76.9633 55.9558 77 55.8291 77ZM60.4263 77.05C59.9196 77.05 59.4663 76.93 59.0663 76.69C58.6663 76.4433 58.3496 76.11 58.1163 75.69C57.8829 75.27 57.7663 74.7967 57.7663 74.27C57.7663 73.7367 57.8863 73.26 58.1263 72.84C58.3729 72.42 58.7063 72.09 59.1263 71.85C59.5463 71.6033 60.0196 71.48 60.5463 71.48C61.0663 71.48 61.5329 71.6033 61.9463 71.85C62.3663 72.09 62.6963 72.42 62.9363 72.84C63.1829 73.26 63.3096 73.7367 63.3163 74.27L62.9763 74.44C62.9763 74.9333 62.8629 75.3767 62.6363 75.77C62.4163 76.1633 62.1129 76.4767 61.7263 76.71C61.3463 76.9367 60.9129 77.05 60.4263 77.05ZM60.5463 76.29C60.9196 76.29 61.2496 76.2033 61.5363 76.03C61.8296 75.85 62.0596 75.6067 62.2263 75.3C62.3996 74.9933 62.4863 74.65 62.4863 74.27C62.4863 73.8833 62.3996 73.54 62.2263 73.24C62.0596 72.9333 61.8296 72.69 61.5363 72.51C61.2496 72.33 60.9196 72.24 60.5463 72.24C60.1796 72.24 59.8463 72.33 59.5463 72.51C59.2529 72.69 59.0196 72.9333 58.8463 73.24C58.6729 73.54 58.5863 73.8833 58.5863 74.27C58.5863 74.65 58.6729 74.9933 58.8463 75.3C59.0196 75.6067 59.2529 75.85 59.5463 76.03C59.8463 76.2033 60.1796 76.29 60.5463 76.29ZM62.8863 77C62.7663 77 62.6629 76.9633 62.5763 76.89C62.4963 76.81 62.4563 76.7067 62.4563 76.58V74.93L62.6463 74.06L63.3163 74.27V76.58C63.3163 76.7067 63.2763 76.81 63.1963 76.89C63.1163 76.9633 63.0129 77 62.8863 77ZM66.7441 77.05C66.3307 77.05 65.9274 76.9833 65.5341 76.85C65.1474 76.71 64.8374 76.5133 64.6041 76.26C64.5241 76.1733 64.4907 76.0733 64.5041 75.96C64.5174 75.8467 64.5707 75.7533 64.6641 75.68C64.7707 75.6 64.8774 75.5667 64.9841 75.58C65.0974 75.5933 65.1907 75.64 65.2641 75.72C65.4107 75.8933 65.6141 76.0333 65.8741 76.14C66.1341 76.24 66.4207 76.29 66.7341 76.29C67.1941 76.29 67.5307 76.2133 67.7441 76.06C67.9641 75.9 68.0774 75.7033 68.0841 75.47C68.0841 75.2433 67.9741 75.0533 67.7541 74.9C67.5407 74.7467 67.1741 74.6267 66.6541 74.54C65.9807 74.4267 65.4874 74.2367 65.1741 73.97C64.8674 73.7033 64.7141 73.3833 64.7141 73.01C64.7141 72.67 64.8074 72.3867 64.9941 72.16C65.1807 71.9333 65.4241 71.7633 65.7241 71.65C66.0307 71.5367 66.3607 71.48 66.7141 71.48C67.1607 71.48 67.5474 71.5567 67.8741 71.71C68.2007 71.8567 68.4641 72.0567 68.6641 72.31C68.7374 72.4033 68.7674 72.5033 68.7541 72.61C68.7474 72.71 68.6941 72.79 68.5941 72.85C68.5074 72.91 68.4041 72.93 68.2841 72.91C68.1707 72.89 68.0741 72.8367 67.9941 72.75C67.8274 72.57 67.6374 72.44 67.4241 72.36C67.2107 72.2733 66.9674 72.23 66.6941 72.23C66.3474 72.23 66.0674 72.3 65.8541 72.44C65.6407 72.5733 65.5341 72.7467 65.5341 72.96C65.5341 73.1067 65.5707 73.2333 65.6441 73.34C65.7241 73.4467 65.8607 73.5433 66.0541 73.63C66.2541 73.71 66.5374 73.7833 66.9041 73.85C67.4041 73.9367 67.7974 74.06 68.0841 74.22C68.3774 74.3733 68.5841 74.5533 68.7041 74.76C68.8307 74.9667 68.8941 75.1967 68.8941 75.45C68.8941 75.7633 68.8041 76.04 68.6241 76.28C68.4507 76.5133 68.2041 76.7 67.8841 76.84C67.5641 76.98 67.1841 77.05 66.7441 77.05ZM75.6341 77.05C75.1075 77.05 74.6341 76.93 74.2141 76.69C73.7941 76.4433 73.4608 76.11 73.2141 75.69C72.9741 75.27 72.8541 74.7933 72.8541 74.26C72.8541 73.7333 72.9708 73.26 73.2041 72.84C73.4375 72.42 73.7541 72.09 74.1541 71.85C74.5541 71.6033 75.0075 71.48 75.5141 71.48C75.9475 71.48 76.3375 71.5733 76.6841 71.76C77.0375 71.94 77.3241 72.18 77.5441 72.48V69.62C77.5441 69.4867 77.5841 69.3833 77.6641 69.31C77.7508 69.23 77.8541 69.19 77.9741 69.19C78.1008 69.19 78.2041 69.23 78.2841 69.31C78.3641 69.3833 78.4041 69.4867 78.4041 69.62V74.29C78.3908 74.81 78.2608 75.28 78.0141 75.7C77.7741 76.1133 77.4475 76.4433 77.0341 76.69C76.6208 76.93 76.1541 77.05 75.6341 77.05ZM75.6341 76.29C76.0075 76.29 76.3375 76.2 76.6241 76.02C76.9175 75.84 77.1475 75.6 77.3141 75.3C77.4875 74.9933 77.5741 74.6467 77.5741 74.26C77.5741 73.88 77.4875 73.5367 77.3141 73.23C77.1475 72.9233 76.9175 72.6833 76.6241 72.51C76.3375 72.33 76.0075 72.24 75.6341 72.24C75.2675 72.24 74.9341 72.33 74.6341 72.51C74.3408 72.6833 74.1075 72.9233 73.9341 73.23C73.7608 73.5367 73.6741 73.88 73.6741 74.26C73.6741 74.6467 73.7608 74.9933 73.9341 75.3C74.1075 75.6 74.3408 75.84 74.6341 76.02C74.9341 76.2 75.2675 76.29 75.6341 76.29ZM82.5747 77.05C82.068 77.05 81.6147 76.93 81.2147 76.69C80.8147 76.4433 80.498 76.11 80.2647 75.69C80.0314 75.27 79.9147 74.7967 79.9147 74.27C79.9147 73.7367 80.0347 73.26 80.2747 72.84C80.5214 72.42 80.8547 72.09 81.2747 71.85C81.6947 71.6033 82.168 71.48 82.6947 71.48C83.2147 71.48 83.6814 71.6033 84.0947 71.85C84.5147 72.09 84.8447 72.42 85.0847 72.84C85.3314 73.26 85.458 73.7367 85.4647 74.27L85.1247 74.44C85.1247 74.9333 85.0114 75.3767 84.7847 75.77C84.5647 76.1633 84.2614 76.4767 83.8747 76.71C83.4947 76.9367 83.0614 77.05 82.5747 77.05ZM82.6947 76.29C83.068 76.29 83.398 76.2033 83.6847 76.03C83.978 75.85 84.208 75.6067 84.3747 75.3C84.548 74.9933 84.6347 74.65 84.6347 74.27C84.6347 73.8833 84.548 73.54 84.3747 73.24C84.208 72.9333 83.978 72.69 83.6847 72.51C83.398 72.33 83.068 72.24 82.6947 72.24C82.328 72.24 81.9947 72.33 81.6947 72.51C81.4014 72.69 81.168 72.9333 80.9947 73.24C80.8214 73.54 80.7347 73.8833 80.7347 74.27C80.7347 74.65 80.8214 74.9933 80.9947 75.3C81.168 75.6067 81.4014 75.85 81.6947 76.03C81.9947 76.2033 82.328 76.29 82.6947 76.29ZM85.0347 77C84.9147 77 84.8114 76.9633 84.7247 76.89C84.6447 76.81 84.6047 76.7067 84.6047 76.58V74.93L84.7947 74.06L85.4647 74.27V76.58C85.4647 76.7067 85.4247 76.81 85.3447 76.89C85.2647 76.9633 85.1614 77 85.0347 77ZM89.0525 77C88.7058 77 88.3958 76.9167 88.1225 76.75C87.8492 76.5833 87.6325 76.3533 87.4725 76.06C87.3192 75.7667 87.2425 75.4367 87.2425 75.07V70.21C87.2425 70.09 87.2792 69.99 87.3525 69.91C87.4325 69.83 87.5358 69.79 87.6625 69.79C87.7825 69.79 87.8825 69.83 87.9625 69.91C88.0425 69.99 88.0825 70.09 88.0825 70.21V75.07C88.0825 75.3833 88.1725 75.6433 88.3525 75.85C88.5392 76.0567 88.7725 76.16 89.0525 76.16H89.3525C89.4592 76.16 89.5492 76.2 89.6225 76.28C89.6958 76.36 89.7325 76.46 89.7325 76.58C89.7325 76.7067 89.6858 76.81 89.5925 76.89C89.5058 76.9633 89.3925 77 89.2525 77H89.0525ZM86.6525 72.46C86.5392 72.46 86.4458 72.4267 86.3725 72.36C86.2992 72.2867 86.2625 72.2 86.2625 72.1C86.2625 71.9933 86.2992 71.9067 86.3725 71.84C86.4458 71.7667 86.5392 71.73 86.6525 71.73H89.1225C89.2358 71.73 89.3292 71.7667 89.4025 71.84C89.4758 71.9067 89.5125 71.9933 89.5125 72.1C89.5125 72.2 89.4758 72.2867 89.4025 72.36C89.3292 72.4267 89.2358 72.46 89.1225 72.46H86.6525ZM93.3559 77.05C92.8493 77.05 92.3959 76.93 91.9959 76.69C91.5959 76.4433 91.2793 76.11 91.0459 75.69C90.8126 75.27 90.6959 74.7967 90.6959 74.27C90.6959 73.7367 90.8159 73.26 91.0559 72.84C91.3026 72.42 91.6359 72.09 92.0559 71.85C92.4759 71.6033 92.9493 71.48 93.4759 71.48C93.9959 71.48 94.4626 71.6033 94.8759 71.85C95.2959 72.09 95.6259 72.42 95.8659 72.84C96.1126 73.26 96.2393 73.7367 96.2459 74.27L95.9059 74.44C95.9059 74.9333 95.7926 75.3767 95.5659 75.77C95.3459 76.1633 95.0426 76.4767 94.6559 76.71C94.2759 76.9367 93.8426 77.05 93.3559 77.05ZM93.4759 76.29C93.8493 76.29 94.1793 76.2033 94.4659 76.03C94.7593 75.85 94.9893 75.6067 95.1559 75.3C95.3293 74.9933 95.4159 74.65 95.4159 74.27C95.4159 73.8833 95.3293 73.54 95.1559 73.24C94.9893 72.9333 94.7593 72.69 94.4659 72.51C94.1793 72.33 93.8493 72.24 93.4759 72.24C93.1093 72.24 92.7759 72.33 92.4759 72.51C92.1826 72.69 91.9493 72.9333 91.7759 73.24C91.6026 73.54 91.5159 73.8833 91.5159 74.27C91.5159 74.65 91.6026 74.9933 91.7759 75.3C91.9493 75.6067 92.1826 75.85 92.4759 76.03C92.7759 76.2033 93.1093 76.29 93.4759 76.29ZM95.8159 77C95.6959 77 95.5926 76.9633 95.5059 76.89C95.4259 76.81 95.3859 76.7067 95.3859 76.58V74.93L95.5759 74.06L96.2459 74.27V76.58C96.2459 76.7067 96.2059 76.81 96.1259 76.89C96.0459 76.9633 95.9426 77 95.8159 77ZM99.6738 77.05C99.2604 77.05 98.8571 76.9833 98.4638 76.85C98.0771 76.71 97.7671 76.5133 97.5338 76.26C97.4538 76.1733 97.4204 76.0733 97.4338 75.96C97.4471 75.8467 97.5004 75.7533 97.5938 75.68C97.7004 75.6 97.8071 75.5667 97.9138 75.58C98.0271 75.5933 98.1204 75.64 98.1938 75.72C98.3404 75.8933 98.5438 76.0333 98.8038 76.14C99.0638 76.24 99.3504 76.29 99.6638 76.29C100.124 76.29 100.46 76.2133 100.674 76.06C100.894 75.9 101.007 75.7033 101.014 75.47C101.014 75.2433 100.904 75.0533 100.684 74.9C100.47 74.7467 100.104 74.6267 99.5838 74.54C98.9104 74.4267 98.4171 74.2367 98.1038 73.97C97.7971 73.7033 97.6438 73.3833 97.6438 73.01C97.6438 72.67 97.7371 72.3867 97.9238 72.16C98.1104 71.9333 98.3538 71.7633 98.6538 71.65C98.9604 71.5367 99.2904 71.48 99.6438 71.48C100.09 71.48 100.477 71.5567 100.804 71.71C101.13 71.8567 101.394 72.0567 101.594 72.31C101.667 72.4033 101.697 72.5033 101.684 72.61C101.677 72.71 101.624 72.79 101.524 72.85C101.437 72.91 101.334 72.93 101.214 72.91C101.1 72.89 101.004 72.8367 100.924 72.75C100.757 72.57 100.567 72.44 100.354 72.36C100.14 72.2733 99.8971 72.23 99.6238 72.23C99.2771 72.23 98.9971 72.3 98.7838 72.44C98.5704 72.5733 98.4638 72.7467 98.4638 72.96C98.4638 73.1067 98.5004 73.2333 98.5738 73.34C98.6538 73.4467 98.7904 73.5433 98.9838 73.63C99.1838 73.71 99.4671 73.7833 99.8338 73.85C100.334 73.9367 100.727 74.06 101.014 74.22C101.307 74.3733 101.514 74.5533 101.634 74.76C101.76 74.9667 101.824 75.1967 101.824 75.45C101.824 75.7633 101.734 76.04 101.554 76.28C101.38 76.5133 101.134 76.7 100.814 76.84C100.494 76.98 100.114 77.05 99.6738 77.05ZM108.564 77.05C108.037 77.05 107.564 76.93 107.144 76.69C106.724 76.4433 106.39 76.11 106.144 75.69C105.904 75.27 105.784 74.7933 105.784 74.26C105.784 73.7333 105.9 73.26 106.134 72.84C106.367 72.42 106.684 72.09 107.084 71.85C107.484 71.6033 107.937 71.48 108.444 71.48C108.877 71.48 109.267 71.5733 109.614 71.76C109.967 71.94 110.254 72.18 110.474 72.48V69.62C110.474 69.4867 110.514 69.3833 110.594 69.31C110.68 69.23 110.784 69.19 110.904 69.19C111.03 69.19 111.134 69.23 111.214 69.31C111.294 69.3833 111.334 69.4867 111.334 69.62V74.29C111.32 74.81 111.19 75.28 110.944 75.7C110.704 76.1133 110.377 76.4433 109.964 76.69C109.55 76.93 109.084 77.05 108.564 77.05ZM108.564 76.29C108.937 76.29 109.267 76.2 109.554 76.02C109.847 75.84 110.077 75.6 110.244 75.3C110.417 74.9933 110.504 74.6467 110.504 74.26C110.504 73.88 110.417 73.5367 110.244 73.23C110.077 72.9233 109.847 72.6833 109.554 72.51C109.267 72.33 108.937 72.24 108.564 72.24C108.197 72.24 107.864 72.33 107.564 72.51C107.27 72.6833 107.037 72.9233 106.864 73.23C106.69 73.5367 106.604 73.88 106.604 74.26C106.604 74.6467 106.69 74.9933 106.864 75.3C107.037 75.6 107.27 75.84 107.564 76.02C107.864 76.2 108.197 76.29 108.564 76.29ZM115.644 77.05C115.098 77.05 114.614 76.9333 114.194 76.7C113.774 76.46 113.444 76.13 113.204 75.71C112.964 75.29 112.844 74.81 112.844 74.27C112.844 73.7233 112.958 73.2433 113.184 72.83C113.411 72.41 113.721 72.08 114.114 71.84C114.514 71.6 114.974 71.48 115.494 71.48C116.001 71.48 116.441 71.5967 116.814 71.83C117.194 72.0567 117.484 72.3733 117.684 72.78C117.891 73.1867 117.994 73.65 117.994 74.17C117.994 74.2833 117.958 74.3767 117.884 74.45C117.811 74.5167 117.718 74.55 117.604 74.55H113.424V73.86H117.654L117.224 74.16C117.231 73.7933 117.164 73.4633 117.024 73.17C116.884 72.8767 116.684 72.6467 116.424 72.48C116.164 72.3133 115.854 72.23 115.494 72.23C115.114 72.23 114.781 72.3167 114.494 72.49C114.214 72.6633 113.998 72.9067 113.844 73.22C113.698 73.5267 113.624 73.8767 113.624 74.27C113.624 74.6633 113.711 75.0133 113.884 75.32C114.058 75.6267 114.294 75.8667 114.594 76.04C114.901 76.2133 115.251 76.3 115.644 76.3C115.871 76.3 116.101 76.26 116.334 76.18C116.574 76.1 116.764 76 116.904 75.88C116.984 75.82 117.074 75.79 117.174 75.79C117.281 75.7833 117.368 75.81 117.434 75.87C117.534 75.9567 117.584 76.05 117.584 76.15C117.591 76.25 117.548 76.3367 117.454 76.41C117.234 76.5967 116.954 76.75 116.614 76.87C116.274 76.99 115.951 77.05 115.644 77.05ZM124.086 77C123.913 77 123.783 76.9067 123.696 76.72L121.506 72.08C121.46 71.9867 121.453 71.8933 121.486 71.8C121.526 71.7067 121.6 71.6333 121.706 71.58C121.806 71.5267 121.903 71.52 121.996 71.56C122.096 71.5933 122.173 71.6567 122.226 71.75L124.306 76.26H123.876L125.936 71.75C125.976 71.65 126.05 71.5833 126.156 71.55C126.263 71.5167 126.366 71.5233 126.466 71.57C126.573 71.6233 126.643 71.7 126.676 71.8C126.71 71.8933 126.706 71.9833 126.666 72.07L124.496 76.72C124.41 76.9067 124.273 77 124.086 77ZM130.049 77.05C129.502 77.05 129.019 76.9333 128.599 76.7C128.179 76.46 127.849 76.13 127.609 75.71C127.369 75.29 127.249 74.81 127.249 74.27C127.249 73.7233 127.362 73.2433 127.589 72.83C127.815 72.41 128.125 72.08 128.519 71.84C128.919 71.6 129.379 71.48 129.899 71.48C130.405 71.48 130.845 71.5967 131.219 71.83C131.599 72.0567 131.889 72.3733 132.089 72.78C132.295 73.1867 132.399 73.65 132.399 74.17C132.399 74.2833 132.362 74.3767 132.289 74.45C132.215 74.5167 132.122 74.55 132.009 74.55H127.829V73.86H132.059L131.629 74.16C131.635 73.7933 131.569 73.4633 131.429 73.17C131.289 72.8767 131.089 72.6467 130.829 72.48C130.569 72.3133 130.259 72.23 129.899 72.23C129.519 72.23 129.185 72.3167 128.899 72.49C128.619 72.6633 128.402 72.9067 128.249 73.22C128.102 73.5267 128.029 73.8767 128.029 74.27C128.029 74.6633 128.115 75.0133 128.289 75.32C128.462 75.6267 128.699 75.8667 128.999 76.04C129.305 76.2133 129.655 76.3 130.049 76.3C130.275 76.3 130.505 76.26 130.739 76.18C130.979 76.1 131.169 76 131.309 75.88C131.389 75.82 131.479 75.79 131.579 75.79C131.685 75.7833 131.772 75.81 131.839 75.87C131.939 75.9567 131.989 76.05 131.989 76.15C131.995 76.25 131.952 76.3367 131.859 76.41C131.639 76.5967 131.359 76.75 131.019 76.87C130.679 76.99 130.355 77.05 130.049 77.05ZM135.631 77.05C135.217 77.05 134.814 76.9833 134.421 76.85C134.034 76.71 133.724 76.5133 133.491 76.26C133.411 76.1733 133.377 76.0733 133.391 75.96C133.404 75.8467 133.457 75.7533 133.551 75.68C133.657 75.6 133.764 75.5667 133.871 75.58C133.984 75.5933 134.077 75.64 134.151 75.72C134.297 75.8933 134.501 76.0333 134.761 76.14C135.021 76.24 135.307 76.29 135.621 76.29C136.081 76.29 136.417 76.2133 136.631 76.06C136.851 75.9 136.964 75.7033 136.971 75.47C136.971 75.2433 136.861 75.0533 136.641 74.9C136.427 74.7467 136.061 74.6267 135.541 74.54C134.867 74.4267 134.374 74.2367 134.061 73.97C133.754 73.7033 133.601 73.3833 133.601 73.01C133.601 72.67 133.694 72.3867 133.881 72.16C134.067 71.9333 134.311 71.7633 134.611 71.65C134.917 71.5367 135.247 71.48 135.601 71.48C136.047 71.48 136.434 71.5567 136.761 71.71C137.087 71.8567 137.351 72.0567 137.551 72.31C137.624 72.4033 137.654 72.5033 137.641 72.61C137.634 72.71 137.581 72.79 137.481 72.85C137.394 72.91 137.291 72.93 137.171 72.91C137.057 72.89 136.961 72.8367 136.881 72.75C136.714 72.57 136.524 72.44 136.311 72.36C136.097 72.2733 135.854 72.23 135.581 72.23C135.234 72.23 134.954 72.3 134.741 72.44C134.527 72.5733 134.421 72.7467 134.421 72.96C134.421 73.1067 134.457 73.2333 134.531 73.34C134.611 73.4467 134.747 73.5433 134.941 73.63C135.141 73.71 135.424 73.7833 135.791 73.85C136.291 73.9367 136.684 74.06 136.971 74.22C137.264 74.3733 137.471 74.5533 137.591 74.76C137.717 74.9667 137.781 75.1967 137.781 75.45C137.781 75.7633 137.691 76.04 137.511 76.28C137.337 76.5133 137.091 76.7 136.771 76.84C136.451 76.98 136.071 77.05 135.631 77.05ZM141.191 77C140.845 77 140.535 76.9167 140.261 76.75C139.988 76.5833 139.771 76.3533 139.611 76.06C139.458 75.7667 139.381 75.4367 139.381 75.07V70.21C139.381 70.09 139.418 69.99 139.491 69.91C139.571 69.83 139.675 69.79 139.801 69.79C139.921 69.79 140.021 69.83 140.101 69.91C140.181 69.99 140.221 70.09 140.221 70.21V75.07C140.221 75.3833 140.311 75.6433 140.491 75.85C140.678 76.0567 140.911 76.16 141.191 76.16H141.491C141.598 76.16 141.688 76.2 141.761 76.28C141.835 76.36 141.871 76.46 141.871 76.58C141.871 76.7067 141.825 76.81 141.731 76.89C141.645 76.9633 141.531 77 141.391 77H141.191ZM138.791 72.46C138.678 72.46 138.585 72.4267 138.511 72.36C138.438 72.2867 138.401 72.2 138.401 72.1C138.401 71.9933 138.438 71.9067 138.511 71.84C138.585 71.7667 138.678 71.73 138.791 71.73H141.261C141.375 71.73 141.468 71.7667 141.541 71.84C141.615 71.9067 141.651 71.9933 141.651 72.1C141.651 72.2 141.615 72.2867 141.541 72.36C141.468 72.4267 141.375 72.46 141.261 72.46H138.791ZM143.695 77C143.568 77 143.465 76.9633 143.385 76.89C143.305 76.81 143.265 76.7033 143.265 76.57V71.96C143.265 71.8267 143.305 71.7233 143.385 71.65C143.465 71.57 143.568 71.53 143.695 71.53C143.821 71.53 143.921 71.57 143.995 71.65C144.075 71.7233 144.115 71.8267 144.115 71.96V76.57C144.115 76.7033 144.075 76.81 143.995 76.89C143.921 76.9633 143.821 77 143.695 77ZM143.685 70.54C143.525 70.54 143.388 70.4833 143.275 70.37C143.161 70.25 143.105 70.11 143.105 69.95C143.105 69.7833 143.161 69.6467 143.275 69.54C143.395 69.4333 143.531 69.38 143.685 69.38C143.838 69.38 143.971 69.4333 144.085 69.54C144.205 69.6467 144.265 69.7833 144.265 69.95C144.265 70.11 144.208 70.25 144.095 70.37C143.981 70.4833 143.845 70.54 143.685 70.54ZM148.814 77.05C148.294 77.05 147.828 76.93 147.414 76.69C147.001 76.4433 146.671 76.1133 146.424 75.7C146.184 75.28 146.061 74.81 146.054 74.29V69.62C146.054 69.4867 146.091 69.3833 146.164 69.31C146.244 69.23 146.351 69.19 146.484 69.19C146.611 69.19 146.711 69.23 146.784 69.31C146.864 69.3833 146.904 69.4867 146.904 69.62V72.48C147.124 72.18 147.411 71.94 147.764 71.76C148.118 71.5733 148.511 71.48 148.944 71.48C149.451 71.48 149.904 71.6033 150.304 71.85C150.704 72.09 151.018 72.42 151.244 72.84C151.478 73.26 151.594 73.7333 151.594 74.26C151.594 74.7933 151.471 75.27 151.224 75.69C150.984 76.11 150.654 76.4433 150.234 76.69C149.821 76.93 149.348 77.05 148.814 77.05ZM148.814 76.29C149.188 76.29 149.521 76.2 149.814 76.02C150.114 75.84 150.348 75.6 150.514 75.3C150.688 74.9933 150.774 74.6467 150.774 74.26C150.774 73.88 150.688 73.5367 150.514 73.23C150.348 72.9233 150.114 72.6833 149.814 72.51C149.521 72.33 149.188 72.24 148.814 72.24C148.454 72.24 148.124 72.33 147.824 72.51C147.531 72.6833 147.301 72.9233 147.134 73.23C146.968 73.5367 146.884 73.88 146.884 74.26C146.884 74.6467 146.968 74.9933 147.134 75.3C147.301 75.6 147.531 75.84 147.824 76.02C148.124 76.2 148.454 76.29 148.814 76.29ZM155.475 77.06C155.002 77.06 154.578 76.9633 154.205 76.77C153.838 76.57 153.548 76.28 153.335 75.9C153.122 75.52 153.015 75.0533 153.015 74.5V71.95C153.015 71.83 153.055 71.73 153.135 71.65C153.215 71.57 153.315 71.53 153.435 71.53C153.555 71.53 153.655 71.57 153.735 71.65C153.815 71.73 153.855 71.83 153.855 71.95V74.5C153.855 74.9067 153.932 75.24 154.085 75.5C154.238 75.7533 154.445 75.9467 154.705 76.08C154.965 76.2067 155.258 76.27 155.585 76.27C155.898 76.27 156.182 76.21 156.435 76.09C156.688 75.9633 156.888 75.7967 157.035 75.59C157.182 75.3767 157.255 75.1333 157.255 74.86H157.825C157.812 75.28 157.702 75.6567 157.495 75.99C157.288 76.3167 157.008 76.5767 156.655 76.77C156.302 76.9633 155.908 77.06 155.475 77.06ZM157.675 77C157.548 77 157.445 76.9633 157.365 76.89C157.292 76.81 157.255 76.7033 157.255 76.57V71.95C157.255 71.8233 157.292 71.7233 157.365 71.65C157.445 71.57 157.548 71.53 157.675 71.53C157.802 71.53 157.905 71.57 157.985 71.65C158.065 71.7233 158.105 71.8233 158.105 71.95V76.57C158.105 76.7033 158.065 76.81 157.985 76.89C157.905 76.9633 157.802 77 157.675 77ZM161.122 77C160.842 77 160.595 76.9267 160.382 76.78C160.169 76.6267 160.002 76.4167 159.882 76.15C159.762 75.8833 159.702 75.5767 159.702 75.23V69.61C159.702 69.4833 159.739 69.3833 159.812 69.31C159.892 69.23 159.995 69.19 160.122 69.19C160.242 69.19 160.339 69.23 160.412 69.31C160.492 69.3833 160.532 69.4833 160.532 69.61V75.23C160.532 75.5033 160.585 75.73 160.692 75.91C160.805 76.0833 160.949 76.17 161.122 76.17H161.372C161.479 76.17 161.565 76.21 161.632 76.29C161.699 76.3633 161.732 76.46 161.732 76.58C161.732 76.7067 161.682 76.81 161.582 76.89C161.489 76.9633 161.365 77 161.212 77H161.122ZM164.85 77.05C164.343 77.05 163.89 76.93 163.49 76.69C163.09 76.4433 162.773 76.11 162.54 75.69C162.307 75.27 162.19 74.7967 162.19 74.27C162.19 73.7367 162.31 73.26 162.55 72.84C162.797 72.42 163.13 72.09 163.55 71.85C163.97 71.6033 164.443 71.48 164.97 71.48C165.49 71.48 165.957 71.6033 166.37 71.85C166.79 72.09 167.12 72.42 167.36 72.84C167.607 73.26 167.733 73.7367 167.74 74.27L167.4 74.44C167.4 74.9333 167.287 75.3767 167.06 75.77C166.84 76.1633 166.537 76.4767 166.15 76.71C165.77 76.9367 165.337 77.05 164.85 77.05ZM164.97 76.29C165.343 76.29 165.673 76.2033 165.96 76.03C166.253 75.85 166.483 75.6067 166.65 75.3C166.823 74.9933 166.91 74.65 166.91 74.27C166.91 73.8833 166.823 73.54 166.65 73.24C166.483 72.9333 166.253 72.69 165.96 72.51C165.673 72.33 165.343 72.24 164.97 72.24C164.603 72.24 164.27 72.33 163.97 72.51C163.677 72.69 163.443 72.9333 163.27 73.24C163.097 73.54 163.01 73.8833 163.01 74.27C163.01 74.65 163.097 74.9933 163.27 75.3C163.443 75.6067 163.677 75.85 163.97 76.03C164.27 76.2033 164.603 76.29 164.97 76.29ZM167.31 77C167.19 77 167.087 76.9633 167 76.89C166.92 76.81 166.88 76.7067 166.88 76.58V74.93L167.07 74.06L167.74 74.27V76.58C167.74 76.7067 167.7 76.81 167.62 76.89C167.54 76.9633 167.437 77 167.31 77ZM169.608 73.61C169.621 73.2033 169.725 72.84 169.918 72.52C170.118 72.1933 170.378 71.9367 170.698 71.75C171.025 71.5633 171.381 71.47 171.768 71.47C172.108 71.47 172.365 71.52 172.538 71.62C172.718 71.72 172.785 71.8567 172.738 72.03C172.718 72.1233 172.675 72.19 172.608 72.23C172.548 72.27 172.475 72.29 172.388 72.29C172.308 72.29 172.215 72.2833 172.108 72.27C171.715 72.2233 171.365 72.25 171.058 72.35C170.758 72.4433 170.518 72.6 170.338 72.82C170.158 73.04 170.068 73.3033 170.068 73.61H169.608ZM169.658 77C169.525 77 169.421 76.9633 169.348 76.89C169.275 76.8167 169.238 76.7133 169.238 76.58V71.95C169.238 71.8167 169.275 71.7133 169.348 71.64C169.421 71.5667 169.525 71.53 169.658 71.53C169.791 71.53 169.891 71.5667 169.958 71.64C170.031 71.7133 170.068 71.8167 170.068 71.95V76.58C170.068 76.7133 170.031 76.8167 169.958 76.89C169.891 76.9633 169.791 77 169.658 77ZM46.5575 88.05C46.0108 88.05 45.5275 87.9333 45.1075 87.7C44.6875 87.46 44.3575 87.13 44.1175 86.71C43.8775 86.29 43.7575 85.81 43.7575 85.27C43.7575 84.7233 43.8708 84.2433 44.0975 83.83C44.3241 83.41 44.6341 83.08 45.0275 82.84C45.4275 82.6 45.8875 82.48 46.4075 82.48C46.9141 82.48 47.3541 82.5967 47.7275 82.83C48.1075 83.0567 48.3975 83.3733 48.5975 83.78C48.8041 84.1867 48.9075 84.65 48.9075 85.17C48.9075 85.2833 48.8708 85.3767 48.7975 85.45C48.7241 85.5167 48.6308 85.55 48.5175 85.55H44.3375V84.86H48.5675L48.1375 85.16C48.1441 84.7933 48.0775 84.4633 47.9375 84.17C47.7975 83.8767 47.5975 83.6467 47.3375 83.48C47.0775 83.3133 46.7675 83.23 46.4075 83.23C46.0275 83.23 45.6941 83.3167 45.4075 83.49C45.1275 83.6633 44.9108 83.9067 44.7575 84.22C44.6108 84.5267 44.5375 84.8767 44.5375 85.27C44.5375 85.6633 44.6241 86.0133 44.7975 86.32C44.9708 86.6267 45.2075 86.8667 45.5075 87.04C45.8141 87.2133 46.1641 87.3 46.5575 87.3C46.7841 87.3 47.0141 87.26 47.2475 87.18C47.4875 87.1 47.6775 87 47.8175 86.88C47.8975 86.82 47.9875 86.79 48.0875 86.79C48.1941 86.7833 48.2808 86.81 48.3475 86.87C48.4475 86.9567 48.4975 87.05 48.4975 87.15C48.5041 87.25 48.4608 87.3367 48.3675 87.41C48.1475 87.5967 47.8675 87.75 47.5275 87.87C47.1875 87.99 46.8641 88.05 46.5575 88.05ZM57.5396 88C57.4129 88 57.3096 87.9633 57.2296 87.89C57.1496 87.81 57.1096 87.7067 57.1096 87.58V84.71C57.1096 84.25 56.9929 83.8933 56.7596 83.64C56.5262 83.3867 56.2229 83.26 55.8496 83.26C55.4562 83.26 55.1329 83.3933 54.8796 83.66C54.6329 83.9267 54.5096 84.2767 54.5096 84.71H53.7796C53.7862 84.2633 53.8829 83.8733 54.0696 83.54C54.2562 83.2 54.5129 82.9367 54.8396 82.75C55.1729 82.5633 55.5496 82.47 55.9696 82.47C56.3562 82.47 56.6996 82.56 56.9996 82.74C57.2996 82.92 57.5329 83.18 57.6996 83.52C57.8729 83.8533 57.9596 84.25 57.9596 84.71V87.58C57.9596 87.7067 57.9196 87.81 57.8396 87.89C57.7596 87.9633 57.6596 88 57.5396 88ZM50.6396 88C50.5062 88 50.3996 87.9633 50.3196 87.89C50.2462 87.81 50.2096 87.7067 50.2096 87.58V82.96C50.2096 82.8333 50.2462 82.73 50.3196 82.65C50.3996 82.57 50.5062 82.53 50.6396 82.53C50.7662 82.53 50.8662 82.57 50.9396 82.65C51.0196 82.73 51.0596 82.8333 51.0596 82.96V87.58C51.0596 87.7067 51.0196 87.81 50.9396 87.89C50.8662 87.9633 50.7662 88 50.6396 88ZM54.0896 88C53.9696 88 53.8696 87.9633 53.7896 87.89C53.7096 87.81 53.6696 87.7067 53.6696 87.58V84.71C53.6696 84.25 53.5496 83.8933 53.3096 83.64C53.0762 83.3867 52.7762 83.26 52.4096 83.26C52.0162 83.26 51.6929 83.39 51.4396 83.65C51.1862 83.91 51.0596 84.25 51.0596 84.67H50.4796C50.4929 84.2367 50.5862 83.8567 50.7596 83.53C50.9329 83.1967 51.1729 82.9367 51.4796 82.75C51.7862 82.5633 52.1362 82.47 52.5296 82.47C52.9162 82.47 53.2596 82.56 53.5596 82.74C53.8596 82.92 54.0929 83.18 54.2596 83.52C54.4262 83.8533 54.5096 84.25 54.5096 84.71V87.58C54.5096 87.7067 54.4696 87.81 54.3896 87.89C54.3162 87.9633 54.2162 88 54.0896 88ZM64.9426 88.06C64.4693 88.06 64.046 87.9633 63.6726 87.77C63.306 87.57 63.016 87.28 62.8026 86.9C62.5893 86.52 62.4826 86.0533 62.4826 85.5V82.95C62.4826 82.83 62.5226 82.73 62.6026 82.65C62.6826 82.57 62.7826 82.53 62.9026 82.53C63.0226 82.53 63.1226 82.57 63.2026 82.65C63.2826 82.73 63.3226 82.83 63.3226 82.95V85.5C63.3226 85.9067 63.3993 86.24 63.5526 86.5C63.706 86.7533 63.9126 86.9467 64.1726 87.08C64.4326 87.2067 64.726 87.27 65.0526 87.27C65.366 87.27 65.6493 87.21 65.9026 87.09C66.156 86.9633 66.356 86.7967 66.5026 86.59C66.6493 86.3767 66.7226 86.1333 66.7226 85.86H67.2926C67.2793 86.28 67.1693 86.6567 66.9626 86.99C66.756 87.3167 66.476 87.5767 66.1226 87.77C65.7693 87.9633 65.376 88.06 64.9426 88.06ZM67.1426 88C67.016 88 66.9126 87.9633 66.8326 87.89C66.7593 87.81 66.7226 87.7033 66.7226 87.57V82.95C66.7226 82.8233 66.7593 82.7233 66.8326 82.65C66.9126 82.57 67.016 82.53 67.1426 82.53C67.2693 82.53 67.3726 82.57 67.4526 82.65C67.5326 82.7233 67.5726 82.8233 67.5726 82.95V87.57C67.5726 87.7033 67.5326 87.81 67.4526 87.89C67.3726 87.9633 67.2693 88 67.1426 88ZM76.6997 88C76.5731 88 76.4697 87.9633 76.3897 87.89C76.3097 87.81 76.2697 87.7067 76.2697 87.58V84.71C76.2697 84.25 76.1531 83.8933 75.9197 83.64C75.6864 83.3867 75.3831 83.26 75.0097 83.26C74.6164 83.26 74.2931 83.3933 74.0397 83.66C73.7931 83.9267 73.6697 84.2767 73.6697 84.71H72.9397C72.9464 84.2633 73.0431 83.8733 73.2297 83.54C73.4164 83.2 73.6731 82.9367 73.9997 82.75C74.3331 82.5633 74.7097 82.47 75.1297 82.47C75.5164 82.47 75.8597 82.56 76.1597 82.74C76.4597 82.92 76.6931 83.18 76.8597 83.52C77.0331 83.8533 77.1197 84.25 77.1197 84.71V87.58C77.1197 87.7067 77.0797 87.81 76.9997 87.89C76.9197 87.9633 76.8197 88 76.6997 88ZM69.7997 88C69.6664 88 69.5597 87.9633 69.4797 87.89C69.4064 87.81 69.3697 87.7067 69.3697 87.58V82.96C69.3697 82.8333 69.4064 82.73 69.4797 82.65C69.5597 82.57 69.6664 82.53 69.7997 82.53C69.9264 82.53 70.0264 82.57 70.0997 82.65C70.1797 82.73 70.2197 82.8333 70.2197 82.96V87.58C70.2197 87.7067 70.1797 87.81 70.0997 87.89C70.0264 87.9633 69.9264 88 69.7997 88ZM73.2497 88C73.1297 88 73.0297 87.9633 72.9497 87.89C72.8697 87.81 72.8297 87.7067 72.8297 87.58V84.71C72.8297 84.25 72.7097 83.8933 72.4697 83.64C72.2364 83.3867 71.9364 83.26 71.5697 83.26C71.1764 83.26 70.8531 83.39 70.5997 83.65C70.3464 83.91 70.2197 84.25 70.2197 84.67H69.6397C69.6531 84.2367 69.7464 83.8567 69.9197 83.53C70.0931 83.1967 70.3331 82.9367 70.6397 82.75C70.9464 82.5633 71.2964 82.47 71.6897 82.47C72.0764 82.47 72.4197 82.56 72.7197 82.74C73.0197 82.92 73.2531 83.18 73.4197 83.52C73.5864 83.8533 73.6697 84.25 73.6697 84.71V87.58C73.6697 87.7067 73.6297 87.81 73.5497 87.89C73.4764 87.9633 73.3764 88 73.2497 88ZM84.1028 88.06C83.6294 88.06 83.2061 87.9633 82.8328 87.77C82.4661 87.57 82.1761 87.28 81.9628 86.9C81.7494 86.52 81.6428 86.0533 81.6428 85.5V82.95C81.6428 82.83 81.6828 82.73 81.7628 82.65C81.8428 82.57 81.9428 82.53 82.0628 82.53C82.1828 82.53 82.2828 82.57 82.3628 82.65C82.4428 82.73 82.4828 82.83 82.4828 82.95V85.5C82.4828 85.9067 82.5594 86.24 82.7128 86.5C82.8661 86.7533 83.0728 86.9467 83.3328 87.08C83.5928 87.2067 83.8861 87.27 84.2128 87.27C84.5261 87.27 84.8094 87.21 85.0628 87.09C85.3161 86.9633 85.5161 86.7967 85.6628 86.59C85.8094 86.3767 85.8828 86.1333 85.8828 85.86H86.4528C86.4394 86.28 86.3294 86.6567 86.1228 86.99C85.9161 87.3167 85.6361 87.5767 85.2828 87.77C84.9294 87.9633 84.5361 88.06 84.1028 88.06ZM86.3028 88C86.1761 88 86.0728 87.9633 85.9928 87.89C85.9194 87.81 85.8828 87.7033 85.8828 87.57V82.95C85.8828 82.8233 85.9194 82.7233 85.9928 82.65C86.0728 82.57 86.1761 82.53 86.3028 82.53C86.4294 82.53 86.5328 82.57 86.6128 82.65C86.6928 82.7233 86.7328 82.8233 86.7328 82.95V87.57C86.7328 87.7033 86.6928 87.81 86.6128 87.89C86.5328 87.9633 86.4294 88 86.3028 88ZM84.2028 81.69C84.0828 81.69 83.9828 81.65 83.9028 81.57C83.8228 81.4833 83.7828 81.3833 83.7828 81.27C83.7828 81.15 83.8128 81.0533 83.8728 80.98L84.9628 79.9C85.0428 79.8133 85.1428 79.77 85.2628 79.77C85.3828 79.77 85.4828 79.8133 85.5628 79.9C85.6428 79.98 85.6828 80.0833 85.6828 80.21C85.6828 80.2633 85.6728 80.3167 85.6528 80.37C85.6394 80.4167 85.6094 80.46 85.5628 80.5L84.4928 81.58C84.4194 81.6533 84.3228 81.69 84.2028 81.69ZM93.1999 88C93.0732 88 92.9699 87.96 92.8899 87.88C92.8099 87.8 92.7699 87.7 92.7699 87.58V85.03C92.7699 84.6233 92.6932 84.2933 92.5399 84.04C92.3932 83.78 92.1899 83.5867 91.9299 83.46C91.6699 83.3267 91.3732 83.26 91.0399 83.26C90.7265 83.26 90.4432 83.3233 90.1899 83.45C89.9432 83.57 89.7465 83.7367 89.5999 83.95C89.4532 84.1567 89.3799 84.3967 89.3799 84.67H88.7999C88.8132 84.25 88.9232 83.8767 89.1299 83.55C89.3432 83.2167 89.6265 82.9533 89.9799 82.76C90.3332 82.5667 90.7265 82.47 91.1599 82.47C91.6265 82.47 92.0432 82.57 92.4099 82.77C92.7832 82.9633 93.0765 83.25 93.2899 83.63C93.5099 84.01 93.6199 84.4767 93.6199 85.03V87.58C93.6199 87.7 93.5799 87.8 93.4999 87.88C93.4199 87.96 93.3199 88 93.1999 88ZM88.9599 88C88.8265 88 88.7199 87.9633 88.6399 87.89C88.5665 87.81 88.5299 87.7067 88.5299 87.58V82.96C88.5299 82.8267 88.5665 82.7233 88.6399 82.65C88.7199 82.57 88.8265 82.53 88.9599 82.53C89.0865 82.53 89.1865 82.57 89.2599 82.65C89.3399 82.7233 89.3799 82.8267 89.3799 82.96V87.58C89.3799 87.7067 89.3399 87.81 89.2599 87.89C89.1865 87.9633 89.0865 88 88.9599 88ZM95.887 88C95.7603 88 95.657 87.9633 95.577 87.89C95.497 87.81 95.457 87.7033 95.457 87.57V82.96C95.457 82.8267 95.497 82.7233 95.577 82.65C95.657 82.57 95.7603 82.53 95.887 82.53C96.0137 82.53 96.1137 82.57 96.187 82.65C96.267 82.7233 96.307 82.8267 96.307 82.96V87.57C96.307 87.7033 96.267 87.81 96.187 87.89C96.1137 87.9633 96.0137 88 95.887 88ZM95.877 81.54C95.717 81.54 95.5803 81.4833 95.467 81.37C95.3537 81.25 95.297 81.11 95.297 80.95C95.297 80.7833 95.3537 80.6467 95.467 80.54C95.587 80.4333 95.7237 80.38 95.877 80.38C96.0303 80.38 96.1637 80.4333 96.277 80.54C96.397 80.6467 96.457 80.7833 96.457 80.95C96.457 81.11 96.4003 81.25 96.287 81.37C96.1737 81.4833 96.037 81.54 95.877 81.54ZM100.697 88.05C100.17 88.05 99.7 87.93 99.2867 87.69C98.8733 87.4433 98.5467 87.11 98.3067 86.69C98.0733 86.27 97.9567 85.7967 97.9567 85.27C97.9567 84.7367 98.07 84.26 98.2967 83.84C98.53 83.42 98.8433 83.09 99.2367 82.85C99.6367 82.6033 100.097 82.48 100.617 82.48C101.017 82.48 101.387 82.56 101.727 82.72C102.067 82.8733 102.367 83.1067 102.627 83.42C102.707 83.5133 102.733 83.61 102.707 83.71C102.687 83.8033 102.627 83.8867 102.527 83.96C102.447 84.0133 102.357 84.0333 102.257 84.02C102.163 84 102.077 83.9467 101.997 83.86C101.63 83.4467 101.17 83.24 100.617 83.24C100.25 83.24 99.9267 83.3267 99.6467 83.5C99.3733 83.6733 99.16 83.9133 99.0067 84.22C98.8533 84.52 98.7767 84.87 98.7767 85.27C98.7767 85.6567 98.8567 86.0033 99.0167 86.31C99.1833 86.61 99.41 86.85 99.6967 87.03C99.99 87.2033 100.323 87.29 100.697 87.29C100.95 87.29 101.177 87.2567 101.377 87.19C101.583 87.1233 101.767 87.02 101.927 86.88C102.02 86.8067 102.113 86.7667 102.207 86.76C102.3 86.7533 102.387 86.78 102.467 86.84C102.553 86.92 102.603 87.01 102.617 87.11C102.63 87.21 102.597 87.3 102.517 87.38C102.03 87.8267 101.423 88.05 100.697 88.05ZM106.703 88.05C106.163 88.05 105.683 87.93 105.263 87.69C104.85 87.45 104.523 87.12 104.283 86.7C104.043 86.28 103.923 85.8033 103.923 85.27C103.923 84.73 104.043 84.25 104.283 83.83C104.523 83.41 104.85 83.08 105.263 82.84C105.683 82.6 106.163 82.48 106.703 82.48C107.237 82.48 107.71 82.6 108.123 82.84C108.537 83.08 108.863 83.41 109.103 83.83C109.343 84.25 109.467 84.73 109.473 85.27C109.473 85.8033 109.353 86.28 109.113 86.7C108.873 87.12 108.543 87.45 108.123 87.69C107.71 87.93 107.237 88.05 106.703 88.05ZM106.703 87.29C107.077 87.29 107.41 87.2033 107.703 87.03C107.997 86.85 108.227 86.61 108.393 86.31C108.56 86.0033 108.643 85.6567 108.643 85.27C108.643 84.8833 108.56 84.5367 108.393 84.23C108.227 83.9233 107.997 83.6833 107.703 83.51C107.41 83.33 107.077 83.24 106.703 83.24C106.33 83.24 105.993 83.33 105.693 83.51C105.4 83.6833 105.167 83.9233 104.993 84.23C104.827 84.5367 104.743 84.8833 104.743 85.27C104.743 85.6567 104.827 86.0033 104.993 86.31C105.167 86.61 105.4 86.85 105.693 87.03C105.993 87.2033 106.33 87.29 106.703 87.29ZM115.121 88C114.841 88 114.594 87.9267 114.381 87.78C114.168 87.6267 114.001 87.4167 113.881 87.15C113.761 86.8833 113.701 86.5767 113.701 86.23V80.61C113.701 80.4833 113.738 80.3833 113.811 80.31C113.891 80.23 113.994 80.19 114.121 80.19C114.241 80.19 114.338 80.23 114.411 80.31C114.491 80.3833 114.531 80.4833 114.531 80.61V86.23C114.531 86.5033 114.584 86.73 114.691 86.91C114.804 87.0833 114.948 87.17 115.121 87.17H115.371C115.478 87.17 115.564 87.21 115.631 87.29C115.698 87.3633 115.731 87.46 115.731 87.58C115.731 87.7067 115.681 87.81 115.581 87.89C115.488 87.9633 115.364 88 115.211 88H115.121ZM119.142 88.06C118.669 88.06 118.245 87.9633 117.872 87.77C117.505 87.57 117.215 87.28 117.002 86.9C116.789 86.52 116.682 86.0533 116.682 85.5V82.95C116.682 82.83 116.722 82.73 116.802 82.65C116.882 82.57 116.982 82.53 117.102 82.53C117.222 82.53 117.322 82.57 117.402 82.65C117.482 82.73 117.522 82.83 117.522 82.95V85.5C117.522 85.9067 117.599 86.24 117.752 86.5C117.905 86.7533 118.112 86.9467 118.372 87.08C118.632 87.2067 118.925 87.27 119.252 87.27C119.565 87.27 119.849 87.21 120.102 87.09C120.355 86.9633 120.555 86.7967 120.702 86.59C120.849 86.3767 120.922 86.1333 120.922 85.86H121.492C121.479 86.28 121.369 86.6567 121.162 86.99C120.955 87.3167 120.675 87.5767 120.322 87.77C119.969 87.9633 119.575 88.06 119.142 88.06ZM121.342 88C121.215 88 121.112 87.9633 121.032 87.89C120.959 87.81 120.922 87.7033 120.922 87.57V82.95C120.922 82.8233 120.959 82.7233 121.032 82.65C121.112 82.57 121.215 82.53 121.342 82.53C121.469 82.53 121.572 82.57 121.652 82.65C121.732 82.7233 121.772 82.8233 121.772 82.95V87.57C121.772 87.7033 121.732 87.81 121.652 87.89C121.572 87.9633 121.469 88 121.342 88ZM125.939 88.05C125.419 88.05 124.959 87.9333 124.559 87.7C124.159 87.46 123.846 87.13 123.619 86.71C123.392 86.29 123.279 85.81 123.279 85.27C123.279 84.7233 123.399 84.24 123.639 83.82C123.879 83.4 124.206 83.0733 124.619 82.84C125.039 82.6 125.519 82.48 126.059 82.48C126.592 82.48 127.066 82.6 127.479 82.84C127.899 83.0733 128.226 83.4 128.459 83.82C128.699 84.24 128.822 84.7233 128.829 85.27L128.329 85.44C128.329 85.9467 128.226 86.3967 128.019 86.79C127.819 87.1833 127.539 87.4933 127.179 87.72C126.819 87.94 126.406 88.05 125.939 88.05ZM126.059 90.19C125.552 90.19 125.096 90.0933 124.689 89.9C124.289 89.7067 123.952 89.4367 123.679 89.09C123.606 89.0033 123.576 88.9067 123.589 88.8C123.602 88.7 123.656 88.62 123.749 88.56C123.849 88.4933 123.956 88.47 124.069 88.49C124.182 88.51 124.272 88.5667 124.339 88.66C124.526 88.8933 124.766 89.08 125.059 89.22C125.352 89.36 125.692 89.43 126.079 89.43C126.432 89.43 126.756 89.3433 127.049 89.17C127.342 89.0033 127.572 88.76 127.739 88.44C127.912 88.12 127.999 87.74 127.999 87.3V85.82L128.299 85.14L128.829 85.27V87.35C128.829 87.8833 128.709 88.3633 128.469 88.79C128.229 89.2233 127.902 89.5633 127.489 89.81C127.076 90.0633 126.599 90.19 126.059 90.19ZM126.059 87.29C126.439 87.29 126.772 87.2033 127.059 87.03C127.352 86.8567 127.582 86.62 127.749 86.32C127.916 86.0133 127.999 85.6633 127.999 85.27C127.999 84.8767 127.916 84.5267 127.749 84.22C127.582 83.9133 127.352 83.6733 127.059 83.5C126.772 83.3267 126.439 83.24 126.059 83.24C125.679 83.24 125.342 83.3267 125.049 83.5C124.756 83.6733 124.522 83.9133 124.349 84.22C124.182 84.5267 124.099 84.8767 124.099 85.27C124.099 85.6633 124.182 86.0133 124.349 86.32C124.522 86.62 124.756 86.8567 125.049 87.03C125.342 87.2033 125.679 87.29 126.059 87.29ZM132.697 88.05C132.19 88.05 131.737 87.93 131.337 87.69C130.937 87.4433 130.62 87.11 130.387 86.69C130.153 86.27 130.037 85.7967 130.037 85.27C130.037 84.7367 130.157 84.26 130.397 83.84C130.643 83.42 130.977 83.09 131.397 82.85C131.817 82.6033 132.29 82.48 132.817 82.48C133.337 82.48 133.803 82.6033 134.217 82.85C134.637 83.09 134.967 83.42 135.207 83.84C135.453 84.26 135.58 84.7367 135.587 85.27L135.247 85.44C135.247 85.9333 135.133 86.3767 134.907 86.77C134.687 87.1633 134.383 87.4767 133.997 87.71C133.617 87.9367 133.183 88.05 132.697 88.05ZM132.817 87.29C133.19 87.29 133.52 87.2033 133.807 87.03C134.1 86.85 134.33 86.6067 134.497 86.3C134.67 85.9933 134.757 85.65 134.757 85.27C134.757 84.8833 134.67 84.54 134.497 84.24C134.33 83.9333 134.1 83.69 133.807 83.51C133.52 83.33 133.19 83.24 132.817 83.24C132.45 83.24 132.117 83.33 131.817 83.51C131.523 83.69 131.29 83.9333 131.117 84.24C130.943 84.54 130.857 84.8833 130.857 85.27C130.857 85.65 130.943 85.9933 131.117 86.3C131.29 86.6067 131.523 86.85 131.817 87.03C132.117 87.2033 132.45 87.29 132.817 87.29ZM135.157 88C135.037 88 134.933 87.9633 134.847 87.89C134.767 87.81 134.727 87.7067 134.727 87.58V85.93L134.917 85.06L135.587 85.27V87.58C135.587 87.7067 135.547 87.81 135.467 87.89C135.387 87.9633 135.283 88 135.157 88ZM137.455 84.61C137.468 84.2033 137.571 83.84 137.765 83.52C137.965 83.1933 138.225 82.9367 138.545 82.75C138.871 82.5633 139.228 82.47 139.615 82.47C139.955 82.47 140.211 82.52 140.385 82.62C140.565 82.72 140.631 82.8567 140.585 83.03C140.565 83.1233 140.521 83.19 140.455 83.23C140.395 83.27 140.321 83.29 140.235 83.29C140.155 83.29 140.061 83.2833 139.955 83.27C139.561 83.2233 139.211 83.25 138.905 83.35C138.605 83.4433 138.365 83.6 138.185 83.82C138.005 84.04 137.915 84.3033 137.915 84.61H137.455ZM137.505 88C137.371 88 137.268 87.9633 137.195 87.89C137.121 87.8167 137.085 87.7133 137.085 87.58V82.95C137.085 82.8167 137.121 82.7133 137.195 82.64C137.268 82.5667 137.371 82.53 137.505 82.53C137.638 82.53 137.738 82.5667 137.805 82.64C137.878 82.7133 137.915 82.8167 137.915 82.95V87.58C137.915 87.7133 137.878 87.8167 137.805 87.89C137.738 87.9633 137.638 88 137.505 88Z" fill="#FFB26A"/>
<defs>
<linearGradient id="paint0_linear_16_85" x1="12" y1="50" x2="62" y2="0" gradientUnits="userSpaceOnUse">
<stop stop-color="#FF8E26"/>
<stop offset="1" stop-color="#FF9C41"/>
</linearGradient>
<linearGradient id="paint1_linear_16_85" x1="6" y1="56" x2="56" y2="6" gradientUnits="userSpaceOnUse">
<stop stop-color="#FF9C41"/>
<stop offset="1" stop-color="#FFB26A"/>
</linearGradient>
<clipPath id="clip0_16_85">
<rect width="184" height="62" fill="white"/>
</clipPath>
</defs>
</svg>
