<svg width="129" height="42" viewBox="0 0 129 42" fill="none" xmlns="http://www.w3.org/2000/svg">
<g clip-path="url(#clip0_2_96)">
<path d="M12 0H37C39.7614 0 42 2.23858 42 5V30H17C14.2386 30 12 27.7614 12 25V0Z" fill="url(#paint0_linear_2_96)"/>
<path d="M6 6H31C33.7614 6 36 8.23858 36 11V36H11C8.23858 36 6 33.7614 6 31V6Z" fill="url(#paint1_linear_2_96)"/>
<path d="M0 12H25C27.7614 12 30 14.2386 30 17V42H5C2.23858 42 0 39.7614 0 37V12Z" fill="#FF8E26"/>
<path d="M55.986 2.688C57.1007 2.688 58.1273 2.96667 59.066 3.524C60.0193 4.08133 60.7747 4.83667 61.332 5.79C61.8893 6.72867 62.168 7.75533 62.168 8.87V11.818C62.168 12.9327 61.8893 13.9667 61.332 14.92C60.7747 15.8587 60.0193 16.6067 59.066 17.164C58.1273 17.7213 57.1007 18 55.986 18H50.332V2.688H55.986ZM61.354 8.87C61.354 7.902 61.112 7.00733 60.628 6.186C60.144 5.36467 59.484 4.712 58.648 4.228C57.8267 3.744 56.932 3.502 55.964 3.502H51.146V17.186H55.964C56.932 17.186 57.8267 16.944 58.648 16.46C59.484 15.976 60.144 15.3233 60.628 14.502C61.112 13.6807 61.354 12.786 61.354 11.818V8.87ZM79.6412 18H65.2092L72.4252 2.358L79.6412 18ZM66.4852 17.186H78.3652L72.4252 4.294L66.4852 17.186ZM94.8923 2.688V3.502H89.1063V18H88.3143V3.502H82.5283V2.688H94.8923ZM112.211 18H97.7795L104.995 2.358L112.211 18ZM99.0555 17.186H110.935L104.995 4.294L99.0555 17.186Z" fill="#FF9C41"/>
<path d="M67.266 21.688L73.118 35.922L78.97 21.688H79.828L73.536 37H72.678L66.386 21.688H67.266ZM84.1452 21.688H94.9252V22.502H84.9592V28.706H93.6272V29.52H84.9592V36.186H94.9252V37H84.1452V21.688ZM106.04 29.674C104.794 29.4247 103.774 29.1533 102.982 28.86C102.205 28.552 101.589 28.1413 101.134 27.628C100.694 27.1 100.474 26.4253 100.474 25.604C100.474 24.7533 100.694 24.0053 101.134 23.36C101.589 22.7147 102.22 22.216 103.026 21.864C103.848 21.512 104.794 21.336 105.864 21.336C106.891 21.336 107.83 21.556 108.68 21.996C109.546 22.4213 110.228 23.0227 110.726 23.8C111.225 24.5773 111.474 25.4647 111.474 26.462H110.66C110.66 25.5967 110.448 24.834 110.022 24.174C109.597 23.514 109.018 23.008 108.284 22.656C107.551 22.2893 106.737 22.106 105.842 22.106C105.05 22.106 104.31 22.2307 103.62 22.48C102.931 22.7293 102.366 23.1107 101.926 23.624C101.501 24.1373 101.288 24.7827 101.288 25.56C101.288 26.264 101.494 26.8287 101.904 27.254C102.315 27.6647 102.85 27.98 103.51 28.2C104.17 28.42 105.094 28.6547 106.282 28.904C107.485 29.1533 108.416 29.3953 109.076 29.63C109.751 29.85 110.316 30.224 110.77 30.752C111.24 31.28 111.474 32.0207 111.474 32.974C111.474 33.9273 111.218 34.734 110.704 35.394C110.206 36.0393 109.538 36.5233 108.702 36.846C107.866 37.1687 106.957 37.33 105.974 37.33C104.757 37.33 103.686 37.1027 102.762 36.648C101.838 36.1933 101.127 35.5553 100.628 34.734C100.144 33.898 99.9023 32.9447 99.9023 31.874H100.716C100.716 32.8127 100.922 33.634 101.332 34.338C101.758 35.042 102.366 35.592 103.158 35.988C103.95 36.3693 104.889 36.56 105.974 36.56C107.324 36.56 108.438 36.2373 109.318 35.592C110.213 34.9467 110.66 34.0667 110.66 32.952C110.66 32.1893 110.47 31.6027 110.088 31.192C109.707 30.7813 109.223 30.488 108.636 30.312C108.064 30.1213 107.199 29.9087 106.04 29.674ZM128.177 21.688V22.502H122.391V37H121.599V22.502H115.813V21.688H128.177Z" fill="#FF8E26"/>
<path d="M67.266 21.688L67.7284 21.4979L67.601 21.188H67.266V21.688ZM73.118 35.922L72.6556 36.1121L73.118 37.2369L73.5804 36.1121L73.118 35.922ZM78.97 21.688V21.188H78.635L78.5076 21.4979L78.97 21.688ZM79.828 21.688L80.2905 21.878L80.574 21.188H79.828V21.688ZM73.536 37V37.5H73.8711L73.9985 37.19L73.536 37ZM72.678 37L72.2155 37.19L72.3429 37.5H72.678V37ZM66.386 21.688V21.188H65.64L65.9235 21.878L66.386 21.688ZM66.8036 21.8781L72.6556 36.1121L73.5804 35.7319L67.7284 21.4979L66.8036 21.8781ZM73.5804 36.1121L79.4324 21.8781L78.5076 21.4979L72.6556 35.7319L73.5804 36.1121ZM78.97 22.188H79.828V21.188H78.97V22.188ZM79.3655 21.498L73.0735 36.81L73.9985 37.19L80.2905 21.878L79.3655 21.498ZM73.536 36.5H72.678V37.5H73.536V36.5ZM73.1405 36.81L66.8485 21.498L65.9235 21.878L72.2155 37.19L73.1405 36.81ZM66.386 22.188H67.266V21.188H66.386V22.188ZM84.1452 21.688V21.188H83.6452V21.688H84.1452ZM94.9252 21.688H95.4252V21.188H94.9252V21.688ZM94.9252 22.502V23.002H95.4252V22.502H94.9252ZM84.9592 22.502V22.002H84.4592V22.502H84.9592ZM84.9592 28.706H84.4592V29.206H84.9592V28.706ZM93.6272 28.706H94.1272V28.206H93.6272V28.706ZM93.6272 29.52V30.02H94.1272V29.52H93.6272ZM84.9592 29.52V29.02H84.4592V29.52H84.9592ZM84.9592 36.186H84.4592V36.686H84.9592V36.186ZM94.9252 36.186H95.4252V35.686H94.9252V36.186ZM94.9252 37V37.5H95.4252V37H94.9252ZM84.1452 37H83.6452V37.5H84.1452V37ZM84.1452 22.188H94.9252V21.188H84.1452V22.188ZM94.4252 21.688V22.502H95.4252V21.688H94.4252ZM94.9252 22.002H84.9592V23.002H94.9252V22.002ZM84.4592 22.502V28.706H85.4592V22.502H84.4592ZM84.9592 29.206H93.6272V28.206H84.9592V29.206ZM93.1272 28.706V29.52H94.1272V28.706H93.1272ZM93.6272 29.02H84.9592V30.02H93.6272V29.02ZM84.4592 29.52V36.186H85.4592V29.52H84.4592ZM84.9592 36.686H94.9252V35.686H84.9592V36.686ZM94.4252 36.186V37H95.4252V36.186H94.4252ZM94.9252 36.5H84.1452V37.5H94.9252V36.5ZM84.6452 37V21.688H83.6452V37H84.6452ZM106.04 29.674L106.14 29.1839L106.138 29.1837L106.04 29.674ZM102.982 28.86L102.798 29.325L102.809 29.3289L102.982 28.86ZM101.134 27.628L100.75 27.9481L100.755 27.9539L100.76 27.9595L101.134 27.628ZM101.134 23.36L100.726 23.072L100.721 23.0783L101.134 23.36ZM103.026 21.864L102.829 21.4044L102.826 21.4057L103.026 21.864ZM108.68 21.996L108.451 22.4402L108.46 22.4447L108.68 21.996ZM110.726 23.8L111.147 23.53L110.726 23.8ZM111.474 26.462V26.962H111.974V26.462H111.474ZM110.66 26.462H110.16V26.962H110.66V26.462ZM110.022 24.174L110.443 23.9031L110.022 24.174ZM108.284 22.656L108.061 23.1033L108.068 23.1068L108.284 22.656ZM103.62 22.48L103.45 22.0098L103.62 22.48ZM101.926 23.624L101.547 23.2986L101.541 23.305L101.926 23.624ZM101.904 27.254L101.545 27.6013L101.551 27.6076L101.904 27.254ZM103.51 28.2L103.352 28.6743L103.51 28.2ZM106.282 28.904L106.18 29.3933L106.181 29.3936L106.282 28.904ZM109.076 29.63L108.909 30.1013L108.921 30.1054L109.076 29.63ZM110.77 30.752L110.391 31.0783L110.397 31.0842L110.77 30.752ZM110.704 35.394L110.31 35.087L110.309 35.0883L110.704 35.394ZM108.702 36.846L108.882 37.3125L108.702 36.846ZM102.762 36.648L102.542 37.0966L102.762 36.648ZM100.628 34.734L100.196 34.9846L100.201 34.9935L100.628 34.734ZM99.9023 31.874V31.374H99.4023V31.874H99.9023ZM100.716 31.874H101.216V31.374H100.716V31.874ZM101.332 34.338L100.9 34.59L100.904 34.5966L101.332 34.338ZM103.158 35.988L102.935 36.4353L102.941 36.4385L103.158 35.988ZM109.318 35.592L109.026 35.1865L109.023 35.1888L109.318 35.592ZM110.088 31.192L109.722 31.5322L110.088 31.192ZM108.636 30.312L108.478 30.7863L108.485 30.7887L108.493 30.7909L108.636 30.312ZM106.138 29.1837C104.906 28.9372 103.914 28.672 103.156 28.3911L102.809 29.3289C103.634 29.6346 104.681 29.9121 105.942 30.1643L106.138 29.1837ZM103.166 28.3952C102.446 28.1098 101.901 27.7396 101.509 27.2965L100.76 27.9595C101.277 28.5431 101.964 28.9942 102.798 29.3248L103.166 28.3952ZM101.518 27.3079C101.167 26.8865 100.974 26.3322 100.974 25.604H99.9743C99.9743 26.5185 100.221 27.3135 100.75 27.9481L101.518 27.3079ZM100.974 25.604C100.974 24.8444 101.169 24.1966 101.547 23.6417L100.721 23.0783C100.22 23.8141 99.9743 24.6622 99.9743 25.604H100.974ZM101.543 23.648C101.939 23.0858 102.494 22.642 103.226 22.3223L102.826 21.4057C101.946 21.79 101.239 22.3435 100.726 23.072L101.543 23.648ZM103.223 22.3236C103.971 22.003 104.848 21.836 105.864 21.836V20.836C104.739 20.836 103.724 21.021 102.829 21.4044L103.223 22.3236ZM105.864 21.836C106.817 21.836 107.676 22.0395 108.451 22.4401L108.91 21.5519C107.983 21.0725 106.965 20.836 105.864 20.836V21.836ZM108.46 22.4447C109.247 22.8317 109.858 23.3728 110.305 24.07L111.147 23.53C110.597 22.6725 109.844 22.011 108.901 21.5473L108.46 22.4447ZM110.305 24.07C110.748 24.7603 110.974 25.5524 110.974 26.462H111.974C111.974 25.3769 111.702 24.3944 111.147 23.53L110.305 24.07ZM111.474 25.962H110.66V26.962H111.474V25.962ZM111.16 26.462C111.16 25.5108 110.925 24.652 110.443 23.9031L109.602 24.4449C109.97 25.016 110.16 25.6826 110.16 26.462H111.16ZM110.443 23.9031C109.965 23.1626 109.314 22.5957 108.501 22.2052L108.068 23.1068C108.721 23.4203 109.229 23.8654 109.602 24.4449L110.443 23.9031ZM108.508 22.2088C107.699 21.8043 106.807 21.606 105.842 21.606V22.606C106.667 22.606 107.403 22.7743 108.061 23.1032L108.508 22.2088ZM105.842 21.606C104.997 21.606 104.198 21.7392 103.45 22.0098L103.79 22.9502C104.421 22.7221 105.104 22.606 105.842 22.606V21.606ZM103.45 22.0098C102.687 22.286 102.048 22.7143 101.547 23.2986L102.306 23.9494C102.685 23.5071 103.175 23.1727 103.79 22.9502L103.45 22.0098ZM101.541 23.305C101.03 23.9225 100.788 24.6865 100.788 25.56H101.788C101.788 24.8788 101.972 24.3522 102.311 23.943L101.541 23.305ZM100.788 25.56C100.788 26.3672 101.027 27.0654 101.545 27.6013L102.264 26.9067C101.96 26.592 101.788 26.1608 101.788 25.56H100.788ZM101.551 27.6076C102.026 28.0829 102.633 28.4346 103.352 28.6743L103.668 27.7257C103.068 27.5254 102.604 27.2464 102.258 26.9004L101.551 27.6076ZM103.352 28.6743C104.039 28.9032 104.984 29.1425 106.18 29.3933L106.385 28.4147C105.204 28.1668 104.302 27.9368 103.668 27.7257L103.352 28.6743ZM106.181 29.3936C107.375 29.6412 108.281 29.8777 108.909 30.1011L109.244 29.1589C108.552 28.9129 107.595 28.6655 106.384 28.4144L106.181 29.3936ZM108.921 30.1054C109.511 30.2976 109.998 30.6208 110.391 31.0783L111.149 30.4257C110.634 29.8272 109.991 29.4024 109.231 29.1546L108.921 30.1054ZM110.397 31.0842C110.76 31.4928 110.974 32.0999 110.974 32.974H111.974C111.974 31.9415 111.719 31.0672 111.144 30.4198L110.397 31.0842ZM110.974 32.974C110.974 33.8325 110.745 34.5269 110.31 35.087L111.099 35.701C111.69 34.9411 111.974 34.0222 111.974 32.974H110.974ZM110.309 35.0883C109.871 35.6543 109.282 36.0864 108.522 36.3795L108.882 37.3125C109.795 36.9603 110.54 36.4243 111.1 35.6997L110.309 35.0883ZM108.522 36.3795C107.749 36.678 106.901 36.83 105.974 36.83V37.83C107.013 37.83 107.984 37.6593 108.882 37.3125L108.522 36.3795ZM105.974 36.83C104.82 36.83 103.827 36.6146 102.983 36.1994L102.542 37.0966C103.546 37.5907 104.694 37.83 105.974 37.83V36.83ZM102.983 36.1994C102.138 35.7836 101.501 35.2085 101.056 34.4745L100.201 34.9935C100.753 35.9022 101.538 36.603 102.542 37.0966L102.983 36.1994ZM101.061 34.4835C100.626 33.7316 100.402 32.8665 100.402 31.874H99.4023C99.4023 33.0229 99.6629 34.0644 100.196 34.9845L101.061 34.4835ZM99.9023 32.374H100.716V31.374H99.9023V32.374ZM100.216 31.874C100.216 32.8876 100.439 33.7985 100.9 34.5899L101.764 34.0861C101.405 33.4695 101.216 32.7378 101.216 31.874H100.216ZM100.904 34.5966C101.382 35.3877 102.065 36.0003 102.935 36.4352L103.382 35.5408C102.668 35.1837 102.133 34.6963 101.76 34.0794L100.904 34.5966ZM102.941 36.4385C103.815 36.8591 104.831 37.06 105.974 37.06V36.06C104.947 36.06 104.086 35.8795 103.375 35.5375L102.941 36.4385ZM105.974 37.06C107.404 37.06 108.63 36.717 109.614 35.9952L109.023 35.1888C108.247 35.7576 107.243 36.06 105.974 36.06V37.06ZM109.611 35.9975C110.637 35.257 111.16 34.2253 111.16 32.952H110.16C110.16 33.908 109.789 34.6363 109.026 35.1865L109.611 35.9975ZM111.16 32.952C111.16 32.1093 110.949 31.384 110.455 30.8518L109.722 31.5322C109.99 31.8214 110.16 32.2693 110.16 32.952H111.16ZM110.455 30.8518C110.007 30.3699 109.444 30.0322 108.78 29.8331L108.493 30.7909C109.002 30.9438 109.407 31.1928 109.722 31.5322L110.455 30.8518ZM108.794 29.8377C108.193 29.6371 107.303 29.4196 106.14 29.1839L105.941 30.1641C107.095 30.3977 107.936 30.6056 108.478 30.7863L108.794 29.8377ZM128.177 21.688H128.677V21.188H128.177V21.688ZM128.177 22.502V23.002H128.677V22.502H128.177ZM122.391 22.502V22.002H121.891V22.502H122.391ZM122.391 37V37.5H122.891V37H122.391ZM121.599 37H121.099V37.5H121.599V37ZM121.599 22.502H122.099V22.002H121.599V22.502ZM115.813 22.502H115.313V23.002H115.813V22.502ZM115.813 21.688V21.188H115.313V21.688H115.813ZM127.677 21.688V22.502H128.677V21.688H127.677ZM128.177 22.002H122.391V23.002H128.177V22.002ZM121.891 22.502V37H122.891V22.502H121.891ZM122.391 36.5H121.599V37.5H122.391V36.5ZM122.099 37V22.502H121.099V37H122.099ZM121.599 22.002H115.813V23.002H121.599V22.002ZM116.313 22.502V21.688H115.313V22.502H116.313ZM115.813 22.188H128.177V21.188H115.813V22.188Z" fill="#FF8E26"/>
</g>
<defs>
<linearGradient id="paint0_linear_2_96" x1="12" y1="30" x2="42" y2="0" gradientUnits="userSpaceOnUse">
<stop stop-color="#FF8E26"/>
<stop offset="1" stop-color="#FF9C41"/>
</linearGradient>
<linearGradient id="paint1_linear_2_96" x1="6" y1="36" x2="36" y2="6" gradientUnits="userSpaceOnUse">
<stop stop-color="#FF9C41"/>
<stop offset="1" stop-color="#FFB26A"/>
</linearGradient>
<clipPath id="clip0_2_96">
<rect width="129" height="42" fill="white"/>
</clipPath>
</defs>
</svg>
