<svg width="26" height="36" viewBox="0 0 26 36" fill="none" xmlns="http://www.w3.org/2000/svg">
<path d="M7 21C6.45 21 5.979 20.804 5.587 20.412C5.195 20.02 4.99934 19.5493 5 19V5C5 4.45 5.196 3.979 5.588 3.587C5.98 3.195 6.45067 2.99934 7 3H14V5H7V19H14V21H7ZM18 17L16.625 15.55L19.175 13H11V11H19.175L16.625 8.45L18 7L23 12L18 17Z" fill="#C7C7C7"/>
<path d="M3.73541 29.08C3.39407 29.08 3.06874 29.0267 2.75941 28.92C2.45007 28.8133 2.18074 28.664 1.95141 28.472C1.72207 28.28 1.55407 28.0587 1.44741 27.808C1.39407 27.696 1.39407 27.592 1.44741 27.496C1.50607 27.4 1.60207 27.3387 1.73541 27.312C1.83141 27.2907 1.92474 27.3067 2.01541 27.36C2.11141 27.408 2.18341 27.4827 2.23141 27.584C2.29541 27.7173 2.39941 27.84 2.54341 27.952C2.69274 28.064 2.87141 28.1547 3.07941 28.224C3.28741 28.2933 3.50607 28.328 3.73541 28.328C3.99141 28.328 4.22607 28.288 4.43941 28.208C4.65807 28.128 4.83407 28.0133 4.96741 27.864C5.10074 27.7093 5.16741 27.52 5.16741 27.296C5.16741 27.0133 5.05541 26.76 4.83141 26.536C4.61274 26.312 4.25007 26.1733 3.74341 26.12C3.08207 26.056 2.56207 25.8613 2.18341 25.536C1.80474 25.2107 1.61541 24.808 1.61541 24.328C1.61541 23.976 1.71407 23.6773 1.91141 23.432C2.10874 23.1867 2.37541 23 2.71141 22.872C3.05274 22.744 3.43141 22.68 3.84741 22.68C4.17274 22.68 4.45541 22.7253 4.69541 22.816C4.94074 22.9067 5.15407 23.032 5.33541 23.192C5.51674 23.352 5.67407 23.5413 5.80741 23.76C5.88207 23.8773 5.91141 23.9893 5.89541 24.096C5.88474 24.1973 5.83407 24.2773 5.74341 24.336C5.64207 24.4 5.53274 24.4133 5.41541 24.376C5.29807 24.3387 5.21007 24.2693 5.15141 24.168C5.06607 24.0133 4.96207 23.8827 4.83941 23.776C4.71674 23.6693 4.57274 23.5867 4.40741 23.528C4.24207 23.464 4.04741 23.432 3.82341 23.432C3.42874 23.4267 3.09807 23.5013 2.83141 23.656C2.56474 23.8053 2.43141 24.0373 2.43141 24.352C2.43141 24.512 2.47141 24.6667 2.55141 24.816C2.63674 24.96 2.78874 25.0853 3.00741 25.192C3.23141 25.2987 3.55141 25.3733 3.96741 25.416C4.60207 25.48 5.09541 25.6747 5.44741 26C5.80474 26.32 5.98341 26.744 5.98341 27.272C5.98341 27.576 5.91941 27.84 5.79141 28.064C5.66874 28.288 5.50074 28.4773 5.28741 28.632C5.07941 28.7813 4.83941 28.8933 4.56741 28.968C4.30074 29.0427 4.02341 29.08 3.73541 29.08ZM7.17122 29C7.02189 29 6.90722 28.936 6.82722 28.808C6.74722 28.68 6.73922 28.544 6.80322 28.4L9.05122 23.032C9.13122 22.8453 9.26189 22.752 9.44322 22.752C9.63522 22.752 9.76589 22.8453 9.83522 23.032L12.0912 28.416C12.1499 28.5653 12.1392 28.7013 12.0592 28.824C11.9846 28.9413 11.8699 29 11.7152 29C11.6352 29 11.5579 28.9787 11.4832 28.936C11.4139 28.888 11.3632 28.824 11.3312 28.744L9.34722 23.816H9.57122L7.55522 28.744C7.51789 28.8293 7.46189 28.8933 7.38722 28.936C7.31789 28.9787 7.24589 29 7.17122 29ZM7.59522 27.624L7.91522 26.936H11.0512L11.3712 27.624H7.59522ZM13.6202 29C13.5029 29 13.4042 28.96 13.3242 28.88C13.2442 28.8 13.2042 28.7013 13.2042 28.584V23.168C13.2042 23.0453 13.2442 22.9467 13.3242 22.872C13.4042 22.792 13.5029 22.752 13.6202 22.752C13.7429 22.752 13.8416 22.792 13.9162 22.872C13.9962 22.9467 14.0362 23.0453 14.0362 23.168V28.584C14.0362 28.7013 13.9962 28.8 13.9162 28.88C13.8416 28.96 13.7429 29 13.6202 29ZM16.2099 29C16.0926 29 15.9939 28.96 15.9139 28.88C15.8339 28.8 15.7939 28.7013 15.7939 28.584V23.168C15.7939 23.0453 15.8339 22.9467 15.9139 22.872C15.9939 22.792 16.0926 22.752 16.2099 22.752H17.6499C18.0499 22.752 18.4046 22.8373 18.7139 23.008C19.0232 23.1733 19.2632 23.4027 19.4339 23.696C19.6099 23.9893 19.6979 24.3307 19.6979 24.72C19.6979 25.0827 19.6099 25.4053 19.4339 25.688C19.2632 25.9707 19.0232 26.192 18.7139 26.352C18.4046 26.512 18.0499 26.592 17.6499 26.592H16.6259V28.584C16.6259 28.7013 16.5859 28.8 16.5059 28.88C16.4312 28.96 16.3326 29 16.2099 29ZM19.5299 29C19.4552 29 19.3859 28.984 19.3219 28.952C19.2632 28.92 19.2126 28.8693 19.1699 28.8L17.7299 26.48L18.5379 26.248L19.8499 28.36C19.9459 28.5147 19.9592 28.6613 19.8899 28.8C19.8206 28.9333 19.7006 29 19.5299 29ZM16.6259 25.824H17.6499C17.8952 25.824 18.1112 25.7787 18.2979 25.688C18.4846 25.592 18.6312 25.4613 18.7379 25.296C18.8446 25.1253 18.8979 24.9333 18.8979 24.72C18.8979 24.4853 18.8446 24.2773 18.7379 24.096C18.6312 23.9147 18.4846 23.7733 18.2979 23.672C18.1112 23.5707 17.8952 23.52 17.6499 23.52H16.6259V25.824Z" fill="#C7C7C7"/>
</svg>
